<mxfile host="app.diagrams.net" modified="2024-05-06T22:04:14.991Z" agent="Mozilla/5.0 (Windows NT 10.0; Win64; x64) AppleWebKit/537.36 (KHTML, like Gecko) Chrome/124.0.0.0 Safari/537.36" etag="n3KwuUPJ-ZuiEO4pKFBO" version="24.3.1" type="github">
  <diagram id="R2lEEEUBdFMjLlhIrx00" name="Page-1">
    <mxGraphModel dx="1502" dy="1656" grid="1" gridSize="10" guides="1" tooltips="1" connect="1" arrows="1" fold="1" page="1" pageScale="1" pageWidth="850" pageHeight="1100" math="0" shadow="0" extFonts="Permanent Marker^https://fonts.googleapis.com/css?family=Permanent+Marker">
      <root>
        <mxCell id="0" />
        <mxCell id="1" parent="0" />
        <mxCell id="2vzEXNzIKZeWlVXa6jJ8-1" value="Вакансия" style="shape=table;startSize=30;container=1;collapsible=1;childLayout=tableLayout;fixedRows=1;rowLines=0;fontStyle=1;align=center;resizeLast=1;html=1;" vertex="1" parent="1">
          <mxGeometry x="260" y="405" width="180" height="200" as="geometry" />
        </mxCell>
        <mxCell id="2vzEXNzIKZeWlVXa6jJ8-2" value="" style="shape=tableRow;horizontal=0;startSize=0;swimlaneHead=0;swimlaneBody=0;fillColor=none;collapsible=0;dropTarget=0;points=[[0,0.5],[1,0.5]];portConstraint=eastwest;top=0;left=0;right=0;bottom=1;" vertex="1" parent="2vzEXNzIKZeWlVXa6jJ8-1">
          <mxGeometry y="30" width="180" height="30" as="geometry" />
        </mxCell>
        <mxCell id="2vzEXNzIKZeWlVXa6jJ8-3" value="PK" style="shape=partialRectangle;connectable=0;fillColor=none;top=0;left=0;bottom=0;right=0;fontStyle=1;overflow=hidden;whiteSpace=wrap;html=1;" vertex="1" parent="2vzEXNzIKZeWlVXa6jJ8-2">
          <mxGeometry width="30" height="30" as="geometry">
            <mxRectangle width="30" height="30" as="alternateBounds" />
          </mxGeometry>
        </mxCell>
        <mxCell id="2vzEXNzIKZeWlVXa6jJ8-4" value="Название" style="shape=partialRectangle;connectable=0;fillColor=none;top=0;left=0;bottom=0;right=0;align=left;spacingLeft=6;fontStyle=5;overflow=hidden;whiteSpace=wrap;html=1;" vertex="1" parent="2vzEXNzIKZeWlVXa6jJ8-2">
          <mxGeometry x="30" width="150" height="30" as="geometry">
            <mxRectangle width="150" height="30" as="alternateBounds" />
          </mxGeometry>
        </mxCell>
        <mxCell id="2vzEXNzIKZeWlVXa6jJ8-5" style="edgeStyle=orthogonalEdgeStyle;rounded=0;orthogonalLoop=1;jettySize=auto;html=1;entryX=0;entryY=0.5;entryDx=0;entryDy=0;endArrow=ERmany;endFill=0;" edge="1" parent="1" source="2vzEXNzIKZeWlVXa6jJ8-7" target="2vzEXNzIKZeWlVXa6jJ8-133">
          <mxGeometry relative="1" as="geometry" />
        </mxCell>
        <mxCell id="2vzEXNzIKZeWlVXa6jJ8-6" style="edgeStyle=orthogonalEdgeStyle;rounded=0;orthogonalLoop=1;jettySize=auto;html=1;exitX=0.25;exitY=0;exitDx=0;exitDy=0;entryX=0;entryY=0.5;entryDx=0;entryDy=0;endArrow=ERmany;endFill=0;" edge="1" parent="1" source="2vzEXNzIKZeWlVXa6jJ8-7" target="2vzEXNzIKZeWlVXa6jJ8-123">
          <mxGeometry relative="1" as="geometry" />
        </mxCell>
        <mxCell id="2vzEXNzIKZeWlVXa6jJ8-7" value="Соискатель" style="shape=table;startSize=30;container=1;collapsible=1;childLayout=tableLayout;fixedRows=1;rowLines=0;fontStyle=1;align=center;resizeLast=1;html=1;movable=1;resizable=1;rotatable=1;deletable=1;editable=1;locked=0;connectable=1;" vertex="1" parent="1">
          <mxGeometry x="250" y="-40" width="180" height="210" as="geometry" />
        </mxCell>
        <mxCell id="2vzEXNzIKZeWlVXa6jJ8-8" value="" style="shape=tableRow;horizontal=0;startSize=0;swimlaneHead=0;swimlaneBody=0;fillColor=none;collapsible=0;dropTarget=0;points=[[0,0.5],[1,0.5]];portConstraint=eastwest;top=0;left=0;right=0;bottom=1;" vertex="1" parent="2vzEXNzIKZeWlVXa6jJ8-7">
          <mxGeometry y="30" width="180" height="30" as="geometry" />
        </mxCell>
        <mxCell id="2vzEXNzIKZeWlVXa6jJ8-9" value="PK" style="shape=partialRectangle;connectable=0;fillColor=none;top=0;left=0;bottom=0;right=0;fontStyle=1;overflow=hidden;whiteSpace=wrap;html=1;" vertex="1" parent="2vzEXNzIKZeWlVXa6jJ8-8">
          <mxGeometry width="30" height="30" as="geometry">
            <mxRectangle width="30" height="30" as="alternateBounds" />
          </mxGeometry>
        </mxCell>
        <mxCell id="2vzEXNzIKZeWlVXa6jJ8-10" value="Номер телефона" style="shape=partialRectangle;connectable=0;fillColor=none;top=0;left=0;bottom=0;right=0;align=left;spacingLeft=6;fontStyle=5;overflow=hidden;whiteSpace=wrap;html=1;" vertex="1" parent="2vzEXNzIKZeWlVXa6jJ8-8">
          <mxGeometry x="30" width="150" height="30" as="geometry">
            <mxRectangle width="150" height="30" as="alternateBounds" />
          </mxGeometry>
        </mxCell>
        <mxCell id="2vzEXNzIKZeWlVXa6jJ8-11" value="" style="shape=tableRow;horizontal=0;startSize=0;swimlaneHead=0;swimlaneBody=0;fillColor=none;collapsible=0;dropTarget=0;points=[[0,0.5],[1,0.5]];portConstraint=eastwest;top=0;left=0;right=0;bottom=0;" vertex="1" parent="2vzEXNzIKZeWlVXa6jJ8-7">
          <mxGeometry y="60" width="180" height="30" as="geometry" />
        </mxCell>
        <mxCell id="2vzEXNzIKZeWlVXa6jJ8-12" value="" style="shape=partialRectangle;connectable=0;fillColor=none;top=0;left=0;bottom=0;right=0;editable=1;overflow=hidden;whiteSpace=wrap;html=1;" vertex="1" parent="2vzEXNzIKZeWlVXa6jJ8-11">
          <mxGeometry width="30" height="30" as="geometry">
            <mxRectangle width="30" height="30" as="alternateBounds" />
          </mxGeometry>
        </mxCell>
        <mxCell id="2vzEXNzIKZeWlVXa6jJ8-13" value="Электронная почта" style="shape=partialRectangle;connectable=0;fillColor=none;top=0;left=0;bottom=0;right=0;align=left;spacingLeft=6;overflow=hidden;whiteSpace=wrap;html=1;" vertex="1" parent="2vzEXNzIKZeWlVXa6jJ8-11">
          <mxGeometry x="30" width="150" height="30" as="geometry">
            <mxRectangle width="150" height="30" as="alternateBounds" />
          </mxGeometry>
        </mxCell>
        <mxCell id="2vzEXNzIKZeWlVXa6jJ8-14" value="" style="shape=tableRow;horizontal=0;startSize=0;swimlaneHead=0;swimlaneBody=0;fillColor=none;collapsible=0;dropTarget=0;points=[[0,0.5],[1,0.5]];portConstraint=eastwest;top=0;left=0;right=0;bottom=0;" vertex="1" parent="2vzEXNzIKZeWlVXa6jJ8-7">
          <mxGeometry y="90" width="180" height="30" as="geometry" />
        </mxCell>
        <mxCell id="2vzEXNzIKZeWlVXa6jJ8-15" value="" style="shape=partialRectangle;connectable=0;fillColor=none;top=0;left=0;bottom=0;right=0;editable=1;overflow=hidden;whiteSpace=wrap;html=1;" vertex="1" parent="2vzEXNzIKZeWlVXa6jJ8-14">
          <mxGeometry width="30" height="30" as="geometry">
            <mxRectangle width="30" height="30" as="alternateBounds" />
          </mxGeometry>
        </mxCell>
        <mxCell id="2vzEXNzIKZeWlVXa6jJ8-16" value="ФИО" style="shape=partialRectangle;connectable=0;fillColor=none;top=0;left=0;bottom=0;right=0;align=left;spacingLeft=6;overflow=hidden;whiteSpace=wrap;html=1;" vertex="1" parent="2vzEXNzIKZeWlVXa6jJ8-14">
          <mxGeometry x="30" width="150" height="30" as="geometry">
            <mxRectangle width="150" height="30" as="alternateBounds" />
          </mxGeometry>
        </mxCell>
        <mxCell id="2vzEXNzIKZeWlVXa6jJ8-17" value="" style="shape=tableRow;horizontal=0;startSize=0;swimlaneHead=0;swimlaneBody=0;fillColor=none;collapsible=0;dropTarget=0;points=[[0,0.5],[1,0.5]];portConstraint=eastwest;top=0;left=0;right=0;bottom=0;" vertex="1" parent="2vzEXNzIKZeWlVXa6jJ8-7">
          <mxGeometry y="120" width="180" height="30" as="geometry" />
        </mxCell>
        <mxCell id="2vzEXNzIKZeWlVXa6jJ8-18" value="" style="shape=partialRectangle;connectable=0;fillColor=none;top=0;left=0;bottom=0;right=0;editable=1;overflow=hidden;whiteSpace=wrap;html=1;" vertex="1" parent="2vzEXNzIKZeWlVXa6jJ8-17">
          <mxGeometry width="30" height="30" as="geometry">
            <mxRectangle width="30" height="30" as="alternateBounds" />
          </mxGeometry>
        </mxCell>
        <mxCell id="2vzEXNzIKZeWlVXa6jJ8-19" value="Местоположение" style="shape=partialRectangle;connectable=0;fillColor=none;top=0;left=0;bottom=0;right=0;align=left;spacingLeft=6;overflow=hidden;whiteSpace=wrap;html=1;" vertex="1" parent="2vzEXNzIKZeWlVXa6jJ8-17">
          <mxGeometry x="30" width="150" height="30" as="geometry">
            <mxRectangle width="150" height="30" as="alternateBounds" />
          </mxGeometry>
        </mxCell>
        <mxCell id="2vzEXNzIKZeWlVXa6jJ8-20" style="edgeStyle=orthogonalEdgeStyle;rounded=0;orthogonalLoop=1;jettySize=auto;html=1;entryX=0.5;entryY=0;entryDx=0;entryDy=0;endArrow=ERmany;endFill=0;exitX=0.541;exitY=1.158;exitDx=0;exitDy=0;exitPerimeter=0;" edge="1" parent="1" source="2vzEXNzIKZeWlVXa6jJ8-24" target="2vzEXNzIKZeWlVXa6jJ8-78">
          <mxGeometry relative="1" as="geometry">
            <Array as="points">
              <mxPoint x="347" y="170" />
              <mxPoint x="350" y="170" />
            </Array>
          </mxGeometry>
        </mxCell>
        <mxCell id="2vzEXNzIKZeWlVXa6jJ8-21" style="edgeStyle=orthogonalEdgeStyle;rounded=0;orthogonalLoop=1;jettySize=auto;html=1;entryX=0.5;entryY=0;entryDx=0;entryDy=0;endArrow=ERmany;endFill=0;" edge="1" parent="1" source="2vzEXNzIKZeWlVXa6jJ8-22" target="2vzEXNzIKZeWlVXa6jJ8-104">
          <mxGeometry relative="1" as="geometry">
            <mxPoint x="540" y="380" as="targetPoint" />
          </mxGeometry>
        </mxCell>
        <mxCell id="2vzEXNzIKZeWlVXa6jJ8-22" value="Дата рождения" style="shape=partialRectangle;align=left;verticalAlign=middle;spacingLeft=34;rotatable=0;points=[[0,0.5],[1,0.5]];portConstraint=eastwest;dropTarget=0;shadow=0;fillColor=none;strokeColor=none;" vertex="1" parent="1">
          <mxGeometry x="250" y="110" width="180" height="30" as="geometry" />
        </mxCell>
        <mxCell id="2vzEXNzIKZeWlVXa6jJ8-23" value="" style="shape=partialRectangle;top=0;left=0;bottom=0;fillColor=none;stokeWidth=1;align=left;verticalAlign=middle;spacingLeft=4;spacingRight=4;overflow=hidden;rotatable=0;points=[];portConstraint=eastwest;part=1;" vertex="1" connectable="0" parent="2vzEXNzIKZeWlVXa6jJ8-22">
          <mxGeometry width="30" height="30" as="geometry" />
        </mxCell>
        <mxCell id="2vzEXNzIKZeWlVXa6jJ8-24" value="Пароль" style="shape=partialRectangle;fillColor=none;align=left;verticalAlign=middle;strokeColor=none;spacingLeft=34;rotatable=0;points=[[0,0.5],[1,0.5]];portConstraint=eastwest;dropTarget=0;shadow=0;fontFamily=Helvetica;fontSize=12;fontColor=default;" vertex="1" parent="1">
          <mxGeometry x="250" y="140" width="180" height="30" as="geometry" />
        </mxCell>
        <mxCell id="2vzEXNzIKZeWlVXa6jJ8-25" value="" style="shape=partialRectangle;top=0;left=0;bottom=0;fillColor=none;stokeWidth=1;align=left;verticalAlign=middle;spacingLeft=4;spacingRight=4;overflow=hidden;rotatable=0;points=[];portConstraint=eastwest;part=1;shadow=0;fontFamily=Helvetica;fontSize=12;fontColor=default;" vertex="1" connectable="0" parent="2vzEXNzIKZeWlVXa6jJ8-24">
          <mxGeometry width="30" height="30" as="geometry" />
        </mxCell>
        <mxCell id="2vzEXNzIKZeWlVXa6jJ8-26" value="Тип занятости" style="shape=partialRectangle;fillColor=none;align=left;verticalAlign=middle;strokeColor=none;spacingLeft=34;rotatable=0;points=[[0,0.5],[1,0.5]];portConstraint=eastwest;dropTarget=0;shadow=0;fontFamily=Helvetica;fontSize=12;fontColor=default;" vertex="1" parent="1">
          <mxGeometry x="260" y="495" width="180" height="30" as="geometry" />
        </mxCell>
        <mxCell id="2vzEXNzIKZeWlVXa6jJ8-27" value="" style="shape=partialRectangle;top=0;left=0;bottom=0;fillColor=none;stokeWidth=1;align=left;verticalAlign=middle;spacingLeft=4;spacingRight=4;overflow=hidden;rotatable=0;points=[];portConstraint=eastwest;part=1;shadow=0;fontFamily=Helvetica;fontSize=12;fontColor=default;" vertex="1" connectable="0" parent="2vzEXNzIKZeWlVXa6jJ8-26">
          <mxGeometry width="30" height="30" as="geometry" />
        </mxCell>
        <mxCell id="2vzEXNzIKZeWlVXa6jJ8-28" style="edgeStyle=orthogonalEdgeStyle;rounded=0;orthogonalLoop=1;jettySize=auto;html=1;exitX=0.75;exitY=0;exitDx=0;exitDy=0;entryX=1;entryY=0.5;entryDx=0;entryDy=0;endArrow=ERmany;endFill=0;" edge="1" parent="1" source="2vzEXNzIKZeWlVXa6jJ8-29" target="2vzEXNzIKZeWlVXa6jJ8-133">
          <mxGeometry relative="1" as="geometry" />
        </mxCell>
        <mxCell id="2vzEXNzIKZeWlVXa6jJ8-29" value="Работодатель" style="shape=table;startSize=30;container=1;collapsible=1;childLayout=tableLayout;fixedRows=1;rowLines=0;fontStyle=1;align=center;resizeLast=1;html=1;movable=1;resizable=1;rotatable=1;deletable=1;editable=1;locked=0;connectable=1;" vertex="1" parent="1">
          <mxGeometry x="1030" y="90" width="180" height="180" as="geometry" />
        </mxCell>
        <mxCell id="2vzEXNzIKZeWlVXa6jJ8-30" value="" style="shape=tableRow;horizontal=0;startSize=0;swimlaneHead=0;swimlaneBody=0;fillColor=none;collapsible=0;dropTarget=0;points=[[0,0.5],[1,0.5]];portConstraint=eastwest;top=0;left=0;right=0;bottom=1;" vertex="1" parent="2vzEXNzIKZeWlVXa6jJ8-29">
          <mxGeometry y="30" width="180" height="30" as="geometry" />
        </mxCell>
        <mxCell id="2vzEXNzIKZeWlVXa6jJ8-31" value="PK" style="shape=partialRectangle;connectable=0;fillColor=none;top=0;left=0;bottom=0;right=0;fontStyle=1;overflow=hidden;whiteSpace=wrap;html=1;" vertex="1" parent="2vzEXNzIKZeWlVXa6jJ8-30">
          <mxGeometry width="30" height="30" as="geometry">
            <mxRectangle width="30" height="30" as="alternateBounds" />
          </mxGeometry>
        </mxCell>
        <mxCell id="2vzEXNzIKZeWlVXa6jJ8-32" value="Номер телефона" style="shape=partialRectangle;connectable=0;fillColor=none;top=0;left=0;bottom=0;right=0;align=left;spacingLeft=6;fontStyle=5;overflow=hidden;whiteSpace=wrap;html=1;" vertex="1" parent="2vzEXNzIKZeWlVXa6jJ8-30">
          <mxGeometry x="30" width="150" height="30" as="geometry">
            <mxRectangle width="150" height="30" as="alternateBounds" />
          </mxGeometry>
        </mxCell>
        <mxCell id="2vzEXNzIKZeWlVXa6jJ8-33" value="" style="shape=tableRow;horizontal=0;startSize=0;swimlaneHead=0;swimlaneBody=0;fillColor=none;collapsible=0;dropTarget=0;points=[[0,0.5],[1,0.5]];portConstraint=eastwest;top=0;left=0;right=0;bottom=0;" vertex="1" parent="2vzEXNzIKZeWlVXa6jJ8-29">
          <mxGeometry y="60" width="180" height="30" as="geometry" />
        </mxCell>
        <mxCell id="2vzEXNzIKZeWlVXa6jJ8-34" value="" style="shape=partialRectangle;connectable=0;fillColor=none;top=0;left=0;bottom=0;right=0;editable=1;overflow=hidden;whiteSpace=wrap;html=1;" vertex="1" parent="2vzEXNzIKZeWlVXa6jJ8-33">
          <mxGeometry width="30" height="30" as="geometry">
            <mxRectangle width="30" height="30" as="alternateBounds" />
          </mxGeometry>
        </mxCell>
        <mxCell id="2vzEXNzIKZeWlVXa6jJ8-35" value="Электронная почта" style="shape=partialRectangle;connectable=0;fillColor=none;top=0;left=0;bottom=0;right=0;align=left;spacingLeft=6;overflow=hidden;whiteSpace=wrap;html=1;" vertex="1" parent="2vzEXNzIKZeWlVXa6jJ8-33">
          <mxGeometry x="30" width="150" height="30" as="geometry">
            <mxRectangle width="150" height="30" as="alternateBounds" />
          </mxGeometry>
        </mxCell>
        <mxCell id="2vzEXNzIKZeWlVXa6jJ8-36" value="" style="shape=tableRow;horizontal=0;startSize=0;swimlaneHead=0;swimlaneBody=0;fillColor=none;collapsible=0;dropTarget=0;points=[[0,0.5],[1,0.5]];portConstraint=eastwest;top=0;left=0;right=0;bottom=0;" vertex="1" parent="2vzEXNzIKZeWlVXa6jJ8-29">
          <mxGeometry y="90" width="180" height="30" as="geometry" />
        </mxCell>
        <mxCell id="2vzEXNzIKZeWlVXa6jJ8-37" value="" style="shape=partialRectangle;connectable=0;fillColor=none;top=0;left=0;bottom=0;right=0;editable=1;overflow=hidden;whiteSpace=wrap;html=1;" vertex="1" parent="2vzEXNzIKZeWlVXa6jJ8-36">
          <mxGeometry width="30" height="30" as="geometry">
            <mxRectangle width="30" height="30" as="alternateBounds" />
          </mxGeometry>
        </mxCell>
        <mxCell id="2vzEXNzIKZeWlVXa6jJ8-38" value="ФИО" style="shape=partialRectangle;connectable=0;fillColor=none;top=0;left=0;bottom=0;right=0;align=left;spacingLeft=6;overflow=hidden;whiteSpace=wrap;html=1;" vertex="1" parent="2vzEXNzIKZeWlVXa6jJ8-36">
          <mxGeometry x="30" width="150" height="30" as="geometry">
            <mxRectangle width="150" height="30" as="alternateBounds" />
          </mxGeometry>
        </mxCell>
        <mxCell id="2vzEXNzIKZeWlVXa6jJ8-39" value="" style="shape=tableRow;horizontal=0;startSize=0;swimlaneHead=0;swimlaneBody=0;fillColor=none;collapsible=0;dropTarget=0;points=[[0,0.5],[1,0.5]];portConstraint=eastwest;top=0;left=0;right=0;bottom=0;" vertex="1" parent="2vzEXNzIKZeWlVXa6jJ8-29">
          <mxGeometry y="120" width="180" height="30" as="geometry" />
        </mxCell>
        <mxCell id="2vzEXNzIKZeWlVXa6jJ8-40" value="" style="shape=partialRectangle;connectable=0;fillColor=none;top=0;left=0;bottom=0;right=0;editable=1;overflow=hidden;whiteSpace=wrap;html=1;" vertex="1" parent="2vzEXNzIKZeWlVXa6jJ8-39">
          <mxGeometry width="30" height="30" as="geometry">
            <mxRectangle width="30" height="30" as="alternateBounds" />
          </mxGeometry>
        </mxCell>
        <mxCell id="2vzEXNzIKZeWlVXa6jJ8-41" value="Местоположение" style="shape=partialRectangle;connectable=0;fillColor=none;top=0;left=0;bottom=0;right=0;align=left;spacingLeft=6;overflow=hidden;whiteSpace=wrap;html=1;" vertex="1" parent="2vzEXNzIKZeWlVXa6jJ8-39">
          <mxGeometry x="30" width="150" height="30" as="geometry">
            <mxRectangle width="150" height="30" as="alternateBounds" />
          </mxGeometry>
        </mxCell>
        <mxCell id="2vzEXNzIKZeWlVXa6jJ8-42" style="edgeStyle=orthogonalEdgeStyle;rounded=0;orthogonalLoop=1;jettySize=auto;html=1;entryX=0.75;entryY=0;entryDx=0;entryDy=0;endArrow=ERmany;endFill=0;" edge="1" parent="1" source="2vzEXNzIKZeWlVXa6jJ8-43" target="2vzEXNzIKZeWlVXa6jJ8-88">
          <mxGeometry relative="1" as="geometry" />
        </mxCell>
        <mxCell id="2vzEXNzIKZeWlVXa6jJ8-43" value="Пароль" style="shape=partialRectangle;fillColor=none;align=left;verticalAlign=middle;strokeColor=none;spacingLeft=34;rotatable=0;points=[[0,0.5],[1,0.5]];portConstraint=eastwest;dropTarget=0;shadow=0;fontFamily=Helvetica;fontSize=12;fontColor=default;" vertex="1" parent="1">
          <mxGeometry x="1030" y="240" width="180" height="30" as="geometry" />
        </mxCell>
        <mxCell id="2vzEXNzIKZeWlVXa6jJ8-44" value="" style="shape=partialRectangle;top=0;left=0;bottom=0;fillColor=none;stokeWidth=1;align=left;verticalAlign=middle;spacingLeft=4;spacingRight=4;overflow=hidden;rotatable=0;points=[];portConstraint=eastwest;part=1;shadow=0;fontFamily=Helvetica;fontSize=12;fontColor=default;" vertex="1" connectable="0" parent="2vzEXNzIKZeWlVXa6jJ8-43">
          <mxGeometry width="30" height="30" as="geometry" />
        </mxCell>
        <mxCell id="2vzEXNzIKZeWlVXa6jJ8-45" style="edgeStyle=orthogonalEdgeStyle;rounded=0;orthogonalLoop=1;jettySize=auto;html=1;endArrow=ERmany;endFill=0;" edge="1" parent="1" source="2vzEXNzIKZeWlVXa6jJ8-46">
          <mxGeometry relative="1" as="geometry">
            <mxPoint x="540" y="420" as="targetPoint" />
          </mxGeometry>
        </mxCell>
        <mxCell id="2vzEXNzIKZeWlVXa6jJ8-46" value="Образование" style="shape=partialRectangle;fillColor=none;align=left;verticalAlign=middle;strokeColor=none;spacingLeft=34;rotatable=0;points=[[0,0.5],[1,0.5]];portConstraint=eastwest;dropTarget=0;shadow=0;fontFamily=Helvetica;fontSize=12;fontColor=default;" vertex="1" parent="1">
          <mxGeometry x="260" y="465" width="180" height="30" as="geometry" />
        </mxCell>
        <mxCell id="2vzEXNzIKZeWlVXa6jJ8-47" value="" style="shape=partialRectangle;top=0;left=0;bottom=0;fillColor=none;stokeWidth=1;align=left;verticalAlign=middle;spacingLeft=4;spacingRight=4;overflow=hidden;rotatable=0;points=[];portConstraint=eastwest;part=1;shadow=0;fontFamily=Helvetica;fontSize=12;fontColor=default;" vertex="1" connectable="0" parent="2vzEXNzIKZeWlVXa6jJ8-46">
          <mxGeometry width="30" height="30" as="geometry" />
        </mxCell>
        <mxCell id="2vzEXNzIKZeWlVXa6jJ8-48" value="Описание" style="shape=partialRectangle;fillColor=none;align=left;verticalAlign=middle;strokeColor=none;spacingLeft=34;rotatable=0;points=[[0,0.5],[1,0.5]];portConstraint=eastwest;dropTarget=0;shadow=0;fontFamily=Helvetica;fontSize=12;fontColor=default;" vertex="1" parent="1">
          <mxGeometry x="260" y="550" width="180" height="30" as="geometry" />
        </mxCell>
        <mxCell id="2vzEXNzIKZeWlVXa6jJ8-49" value="" style="shape=partialRectangle;top=0;left=0;bottom=0;fillColor=none;stokeWidth=1;align=left;verticalAlign=middle;spacingLeft=4;spacingRight=4;overflow=hidden;rotatable=0;points=[];portConstraint=eastwest;part=1;shadow=0;fontFamily=Helvetica;fontSize=12;fontColor=default;" vertex="1" connectable="0" parent="2vzEXNzIKZeWlVXa6jJ8-48">
          <mxGeometry width="30" height="30" as="geometry" />
        </mxCell>
        <mxCell id="2vzEXNzIKZeWlVXa6jJ8-50" value="Опыт работы" style="shape=partialRectangle;fillColor=none;align=left;verticalAlign=middle;strokeColor=none;spacingLeft=34;rotatable=0;points=[[0,0.5],[1,0.5]];portConstraint=eastwest;dropTarget=0;shadow=0;fontFamily=Helvetica;fontSize=12;fontColor=default;" vertex="1" parent="1">
          <mxGeometry x="260" y="525" width="180" height="30" as="geometry" />
        </mxCell>
        <mxCell id="2vzEXNzIKZeWlVXa6jJ8-51" value="" style="shape=partialRectangle;top=0;left=0;bottom=0;fillColor=none;stokeWidth=1;align=left;verticalAlign=middle;spacingLeft=4;spacingRight=4;overflow=hidden;rotatable=0;points=[];portConstraint=eastwest;part=1;shadow=0;fontFamily=Helvetica;fontSize=12;fontColor=default;" vertex="1" connectable="0" parent="2vzEXNzIKZeWlVXa6jJ8-50">
          <mxGeometry width="30" height="30" as="geometry" />
        </mxCell>
        <mxCell id="2vzEXNzIKZeWlVXa6jJ8-52" value="Дата публикации" style="shape=partialRectangle;fillColor=none;align=left;verticalAlign=middle;strokeColor=none;spacingLeft=34;rotatable=0;points=[[0,0.5],[1,0.5]];portConstraint=eastwest;dropTarget=0;shadow=0;fontFamily=Helvetica;fontSize=12;fontColor=default;" vertex="1" parent="1">
          <mxGeometry x="260" y="575" width="180" height="30" as="geometry" />
        </mxCell>
        <mxCell id="2vzEXNzIKZeWlVXa6jJ8-53" value="" style="shape=partialRectangle;top=0;left=0;bottom=0;fillColor=none;stokeWidth=1;align=left;verticalAlign=middle;spacingLeft=4;spacingRight=4;overflow=hidden;rotatable=0;points=[];portConstraint=eastwest;part=1;shadow=0;fontFamily=Helvetica;fontSize=12;fontColor=default;" vertex="1" connectable="0" parent="2vzEXNzIKZeWlVXa6jJ8-52">
          <mxGeometry width="30" height="30" as="geometry" />
        </mxCell>
        <mxCell id="2vzEXNzIKZeWlVXa6jJ8-54" value="Резюме" style="shape=table;startSize=30;container=1;collapsible=1;childLayout=tableLayout;fixedRows=1;rowLines=0;fontStyle=1;align=center;resizeLast=1;html=1;" vertex="1" parent="1">
          <mxGeometry x="630" y="70" width="180" height="200" as="geometry" />
        </mxCell>
        <mxCell id="2vzEXNzIKZeWlVXa6jJ8-55" value="" style="shape=tableRow;horizontal=0;startSize=0;swimlaneHead=0;swimlaneBody=0;fillColor=none;collapsible=0;dropTarget=0;points=[[0,0.5],[1,0.5]];portConstraint=eastwest;top=0;left=0;right=0;bottom=1;" vertex="1" parent="2vzEXNzIKZeWlVXa6jJ8-54">
          <mxGeometry y="30" width="180" height="30" as="geometry" />
        </mxCell>
        <mxCell id="2vzEXNzIKZeWlVXa6jJ8-56" value="PK" style="shape=partialRectangle;connectable=0;fillColor=none;top=0;left=0;bottom=0;right=0;fontStyle=1;overflow=hidden;whiteSpace=wrap;html=1;" vertex="1" parent="2vzEXNzIKZeWlVXa6jJ8-55">
          <mxGeometry width="30" height="30" as="geometry">
            <mxRectangle width="30" height="30" as="alternateBounds" />
          </mxGeometry>
        </mxCell>
        <mxCell id="2vzEXNzIKZeWlVXa6jJ8-57" value="Название" style="shape=partialRectangle;connectable=0;fillColor=none;top=0;left=0;bottom=0;right=0;align=left;spacingLeft=6;fontStyle=5;overflow=hidden;whiteSpace=wrap;html=1;" vertex="1" parent="2vzEXNzIKZeWlVXa6jJ8-55">
          <mxGeometry x="30" width="150" height="30" as="geometry">
            <mxRectangle width="150" height="30" as="alternateBounds" />
          </mxGeometry>
        </mxCell>
        <mxCell id="2vzEXNzIKZeWlVXa6jJ8-58" value="Тип занятости" style="shape=partialRectangle;fillColor=none;align=left;verticalAlign=middle;strokeColor=none;spacingLeft=34;rotatable=0;points=[[0,0.5],[1,0.5]];portConstraint=eastwest;dropTarget=0;shadow=0;fontFamily=Helvetica;fontSize=12;fontColor=default;" vertex="1" parent="1">
          <mxGeometry x="630" y="160" width="180" height="30" as="geometry" />
        </mxCell>
        <mxCell id="2vzEXNzIKZeWlVXa6jJ8-59" value="" style="shape=partialRectangle;top=0;left=0;bottom=0;fillColor=none;stokeWidth=1;align=left;verticalAlign=middle;spacingLeft=4;spacingRight=4;overflow=hidden;rotatable=0;points=[];portConstraint=eastwest;part=1;shadow=0;fontFamily=Helvetica;fontSize=12;fontColor=default;" vertex="1" connectable="0" parent="2vzEXNzIKZeWlVXa6jJ8-58">
          <mxGeometry width="30" height="30" as="geometry" />
        </mxCell>
        <mxCell id="2vzEXNzIKZeWlVXa6jJ8-60" value="Образование" style="shape=partialRectangle;fillColor=none;align=left;verticalAlign=middle;strokeColor=none;spacingLeft=34;rotatable=0;points=[[0,0.5],[1,0.5]];portConstraint=eastwest;dropTarget=0;shadow=0;fontFamily=Helvetica;fontSize=12;fontColor=default;" vertex="1" parent="1">
          <mxGeometry x="630" y="130" width="180" height="30" as="geometry" />
        </mxCell>
        <mxCell id="2vzEXNzIKZeWlVXa6jJ8-61" value="" style="shape=partialRectangle;top=0;left=0;bottom=0;fillColor=none;stokeWidth=1;align=left;verticalAlign=middle;spacingLeft=4;spacingRight=4;overflow=hidden;rotatable=0;points=[];portConstraint=eastwest;part=1;shadow=0;fontFamily=Helvetica;fontSize=12;fontColor=default;" vertex="1" connectable="0" parent="2vzEXNzIKZeWlVXa6jJ8-60">
          <mxGeometry width="30" height="30" as="geometry" />
        </mxCell>
        <mxCell id="2vzEXNzIKZeWlVXa6jJ8-62" value="Описание" style="shape=partialRectangle;fillColor=none;align=left;verticalAlign=middle;strokeColor=none;spacingLeft=34;rotatable=0;points=[[0,0.5],[1,0.5]];portConstraint=eastwest;dropTarget=0;shadow=0;fontFamily=Helvetica;fontSize=12;fontColor=default;" vertex="1" parent="1">
          <mxGeometry x="630" y="215" width="180" height="30" as="geometry" />
        </mxCell>
        <mxCell id="2vzEXNzIKZeWlVXa6jJ8-63" value="" style="shape=partialRectangle;top=0;left=0;bottom=0;fillColor=none;stokeWidth=1;align=left;verticalAlign=middle;spacingLeft=4;spacingRight=4;overflow=hidden;rotatable=0;points=[];portConstraint=eastwest;part=1;shadow=0;fontFamily=Helvetica;fontSize=12;fontColor=default;" vertex="1" connectable="0" parent="2vzEXNzIKZeWlVXa6jJ8-62">
          <mxGeometry width="30" height="30" as="geometry" />
        </mxCell>
        <mxCell id="2vzEXNzIKZeWlVXa6jJ8-64" value="Опыт работы" style="shape=partialRectangle;fillColor=none;align=left;verticalAlign=middle;strokeColor=none;spacingLeft=34;rotatable=0;points=[[0,0.5],[1,0.5]];portConstraint=eastwest;dropTarget=0;shadow=0;fontFamily=Helvetica;fontSize=12;fontColor=default;" vertex="1" parent="1">
          <mxGeometry x="630" y="190" width="180" height="30" as="geometry" />
        </mxCell>
        <mxCell id="2vzEXNzIKZeWlVXa6jJ8-65" value="" style="shape=partialRectangle;top=0;left=0;bottom=0;fillColor=none;stokeWidth=1;align=left;verticalAlign=middle;spacingLeft=4;spacingRight=4;overflow=hidden;rotatable=0;points=[];portConstraint=eastwest;part=1;shadow=0;fontFamily=Helvetica;fontSize=12;fontColor=default;" vertex="1" connectable="0" parent="2vzEXNzIKZeWlVXa6jJ8-64">
          <mxGeometry width="30" height="30" as="geometry" />
        </mxCell>
        <mxCell id="2vzEXNzIKZeWlVXa6jJ8-66" style="edgeStyle=orthogonalEdgeStyle;rounded=0;orthogonalLoop=1;jettySize=auto;html=1;entryX=0.25;entryY=0;entryDx=0;entryDy=0;endArrow=ERmany;endFill=0;" edge="1" parent="1" source="2vzEXNzIKZeWlVXa6jJ8-67" target="2vzEXNzIKZeWlVXa6jJ8-88">
          <mxGeometry relative="1" as="geometry" />
        </mxCell>
        <mxCell id="2vzEXNzIKZeWlVXa6jJ8-67" value="Дата публикации" style="shape=partialRectangle;fillColor=none;align=left;verticalAlign=middle;strokeColor=none;spacingLeft=34;rotatable=0;points=[[0,0.5],[1,0.5]];portConstraint=eastwest;dropTarget=0;shadow=0;fontFamily=Helvetica;fontSize=12;fontColor=default;" vertex="1" parent="1">
          <mxGeometry x="630" y="240" width="180" height="30" as="geometry" />
        </mxCell>
        <mxCell id="2vzEXNzIKZeWlVXa6jJ8-68" value="" style="shape=partialRectangle;top=0;left=0;bottom=0;fillColor=none;stokeWidth=1;align=left;verticalAlign=middle;spacingLeft=4;spacingRight=4;overflow=hidden;rotatable=0;points=[];portConstraint=eastwest;part=1;shadow=0;fontFamily=Helvetica;fontSize=12;fontColor=default;" vertex="1" connectable="0" parent="2vzEXNzIKZeWlVXa6jJ8-67">
          <mxGeometry width="30" height="30" as="geometry" />
        </mxCell>
        <mxCell id="2vzEXNzIKZeWlVXa6jJ8-69" value="&lt;font style=&quot;font-size: 30px;&quot;&gt;*&lt;/font&gt;" style="text;html=1;align=center;verticalAlign=middle;resizable=0;points=[];autosize=1;strokeColor=none;fillColor=none;" vertex="1" parent="1">
          <mxGeometry x="720" y="40" width="40" height="50" as="geometry" />
        </mxCell>
        <mxCell id="2vzEXNzIKZeWlVXa6jJ8-70" value="Отзывы о работодателе" style="shape=table;startSize=30;container=1;collapsible=1;childLayout=tableLayout;fixedRows=1;rowLines=0;fontStyle=1;align=center;resizeLast=1;html=1;" vertex="1" parent="1">
          <mxGeometry x="840" y="-20" width="180" height="90" as="geometry" />
        </mxCell>
        <mxCell id="2vzEXNzIKZeWlVXa6jJ8-71" value="" style="shape=tableRow;horizontal=0;startSize=0;swimlaneHead=0;swimlaneBody=0;fillColor=none;collapsible=0;dropTarget=0;points=[[0,0.5],[1,0.5]];portConstraint=eastwest;top=0;left=0;right=0;bottom=1;" vertex="1" parent="2vzEXNzIKZeWlVXa6jJ8-70">
          <mxGeometry y="30" width="180" height="30" as="geometry" />
        </mxCell>
        <mxCell id="2vzEXNzIKZeWlVXa6jJ8-72" value="" style="shape=partialRectangle;connectable=0;fillColor=none;top=0;left=0;bottom=0;right=0;fontStyle=1;overflow=hidden;whiteSpace=wrap;html=1;" vertex="1" parent="2vzEXNzIKZeWlVXa6jJ8-71">
          <mxGeometry width="30" height="30" as="geometry">
            <mxRectangle width="30" height="30" as="alternateBounds" />
          </mxGeometry>
        </mxCell>
        <mxCell id="2vzEXNzIKZeWlVXa6jJ8-73" value="" style="shape=partialRectangle;connectable=0;fillColor=none;top=0;left=0;bottom=0;right=0;align=left;spacingLeft=6;fontStyle=5;overflow=hidden;whiteSpace=wrap;html=1;" vertex="1" parent="2vzEXNzIKZeWlVXa6jJ8-71">
          <mxGeometry x="30" width="150" height="30" as="geometry">
            <mxRectangle width="150" height="30" as="alternateBounds" />
          </mxGeometry>
        </mxCell>
        <mxCell id="2vzEXNzIKZeWlVXa6jJ8-74" value="Отзыв" style="shape=partialRectangle;fillColor=none;align=left;verticalAlign=middle;strokeColor=none;spacingLeft=34;rotatable=0;points=[[0,0.5],[1,0.5]];portConstraint=eastwest;dropTarget=0;shadow=0;fontFamily=Helvetica;fontSize=12;fontColor=default;" vertex="1" parent="1">
          <mxGeometry x="840" y="10" width="180" height="30" as="geometry" />
        </mxCell>
        <mxCell id="2vzEXNzIKZeWlVXa6jJ8-75" value="" style="shape=partialRectangle;top=0;left=0;bottom=0;fillColor=none;stokeWidth=1;align=left;verticalAlign=middle;spacingLeft=4;spacingRight=4;overflow=hidden;rotatable=0;points=[];portConstraint=eastwest;part=1;shadow=0;fontFamily=Helvetica;fontSize=12;fontColor=default;" vertex="1" connectable="0" parent="2vzEXNzIKZeWlVXa6jJ8-74">
          <mxGeometry width="30" height="30" as="geometry" />
        </mxCell>
        <mxCell id="2vzEXNzIKZeWlVXa6jJ8-76" value="Балл" style="shape=partialRectangle;fillColor=none;align=left;verticalAlign=middle;strokeColor=none;spacingLeft=34;rotatable=0;points=[[0,0.5],[1,0.5]];portConstraint=eastwest;dropTarget=0;shadow=0;fontFamily=Helvetica;fontSize=12;fontColor=default;" vertex="1" parent="1">
          <mxGeometry x="840" y="40" width="180" height="30" as="geometry" />
        </mxCell>
        <mxCell id="2vzEXNzIKZeWlVXa6jJ8-77" value="" style="shape=partialRectangle;top=0;left=0;bottom=0;fillColor=none;stokeWidth=1;align=left;verticalAlign=middle;spacingLeft=4;spacingRight=4;overflow=hidden;rotatable=0;points=[];portConstraint=eastwest;part=1;shadow=0;fontFamily=Helvetica;fontSize=12;fontColor=default;" vertex="1" connectable="0" parent="2vzEXNzIKZeWlVXa6jJ8-76">
          <mxGeometry width="30" height="30" as="geometry" />
        </mxCell>
        <mxCell id="2vzEXNzIKZeWlVXa6jJ8-78" value="Отклик на вакансию" style="shape=table;startSize=30;container=1;collapsible=1;childLayout=tableLayout;fixedRows=1;rowLines=0;fontStyle=1;align=center;resizeLast=1;html=1;" vertex="1" parent="1">
          <mxGeometry x="260" y="230" width="180" height="90" as="geometry" />
        </mxCell>
        <mxCell id="2vzEXNzIKZeWlVXa6jJ8-79" value="" style="shape=tableRow;horizontal=0;startSize=0;swimlaneHead=0;swimlaneBody=0;fillColor=none;collapsible=0;dropTarget=0;points=[[0,0.5],[1,0.5]];portConstraint=eastwest;top=0;left=0;right=0;bottom=1;" vertex="1" parent="2vzEXNzIKZeWlVXa6jJ8-78">
          <mxGeometry y="30" width="180" height="30" as="geometry" />
        </mxCell>
        <mxCell id="2vzEXNzIKZeWlVXa6jJ8-80" value="" style="shape=partialRectangle;connectable=0;fillColor=none;top=0;left=0;bottom=0;right=0;fontStyle=1;overflow=hidden;whiteSpace=wrap;html=1;" vertex="1" parent="2vzEXNzIKZeWlVXa6jJ8-79">
          <mxGeometry width="30" height="30" as="geometry">
            <mxRectangle width="30" height="30" as="alternateBounds" />
          </mxGeometry>
        </mxCell>
        <mxCell id="2vzEXNzIKZeWlVXa6jJ8-81" value="" style="shape=partialRectangle;connectable=0;fillColor=none;top=0;left=0;bottom=0;right=0;align=left;spacingLeft=6;fontStyle=5;overflow=hidden;whiteSpace=wrap;html=1;" vertex="1" parent="2vzEXNzIKZeWlVXa6jJ8-79">
          <mxGeometry x="30" width="150" height="30" as="geometry">
            <mxRectangle width="150" height="30" as="alternateBounds" />
          </mxGeometry>
        </mxCell>
        <mxCell id="2vzEXNzIKZeWlVXa6jJ8-82" value="Состояние" style="shape=partialRectangle;fillColor=none;align=left;verticalAlign=middle;strokeColor=none;spacingLeft=34;rotatable=0;points=[[0,0.5],[1,0.5]];portConstraint=eastwest;dropTarget=0;shadow=0;fontFamily=Helvetica;fontSize=12;fontColor=default;" vertex="1" parent="1">
          <mxGeometry x="260" y="260" width="180" height="30" as="geometry" />
        </mxCell>
        <mxCell id="2vzEXNzIKZeWlVXa6jJ8-83" value="" style="shape=partialRectangle;top=0;left=0;bottom=0;fillColor=none;stokeWidth=1;align=left;verticalAlign=middle;spacingLeft=4;spacingRight=4;overflow=hidden;rotatable=0;points=[];portConstraint=eastwest;part=1;shadow=0;fontFamily=Helvetica;fontSize=12;fontColor=default;" vertex="1" connectable="0" parent="2vzEXNzIKZeWlVXa6jJ8-82">
          <mxGeometry width="30" height="30" as="geometry" />
        </mxCell>
        <mxCell id="2vzEXNzIKZeWlVXa6jJ8-84" value="Время отклика" style="shape=partialRectangle;fillColor=none;align=left;verticalAlign=middle;strokeColor=none;spacingLeft=34;rotatable=0;points=[[0,0.5],[1,0.5]];portConstraint=eastwest;dropTarget=0;shadow=0;fontFamily=Helvetica;fontSize=12;fontColor=default;" vertex="1" parent="1">
          <mxGeometry x="260" y="290" width="180" height="30" as="geometry" />
        </mxCell>
        <mxCell id="2vzEXNzIKZeWlVXa6jJ8-85" value="" style="shape=partialRectangle;top=0;left=0;bottom=0;fillColor=none;stokeWidth=1;align=left;verticalAlign=middle;spacingLeft=4;spacingRight=4;overflow=hidden;rotatable=0;points=[];portConstraint=eastwest;part=1;shadow=0;fontFamily=Helvetica;fontSize=12;fontColor=default;" vertex="1" connectable="0" parent="2vzEXNzIKZeWlVXa6jJ8-84">
          <mxGeometry width="30" height="30" as="geometry" />
        </mxCell>
        <mxCell id="2vzEXNzIKZeWlVXa6jJ8-86" value="&lt;font style=&quot;font-size: 30px;&quot;&gt;*&lt;/font&gt;" style="text;html=1;align=center;verticalAlign=middle;resizable=0;points=[];autosize=1;strokeColor=none;fillColor=none;" vertex="1" parent="1">
          <mxGeometry x="320" y="195" width="40" height="50" as="geometry" />
        </mxCell>
        <mxCell id="2vzEXNzIKZeWlVXa6jJ8-87" value="&lt;font style=&quot;font-size: 30px;&quot;&gt;*&lt;/font&gt;" style="text;html=1;align=center;verticalAlign=middle;resizable=0;points=[];autosize=1;strokeColor=none;fillColor=none;" vertex="1" parent="1">
          <mxGeometry x="340" y="315" width="40" height="50" as="geometry" />
        </mxCell>
        <mxCell id="2vzEXNzIKZeWlVXa6jJ8-88" value="Отклик на резюме" style="shape=table;startSize=30;container=1;collapsible=1;childLayout=tableLayout;fixedRows=1;rowLines=0;fontStyle=1;align=center;resizeLast=1;html=1;" vertex="1" parent="1">
          <mxGeometry x="830" y="320" width="180" height="90" as="geometry" />
        </mxCell>
        <mxCell id="2vzEXNzIKZeWlVXa6jJ8-89" value="" style="shape=tableRow;horizontal=0;startSize=0;swimlaneHead=0;swimlaneBody=0;fillColor=none;collapsible=0;dropTarget=0;points=[[0,0.5],[1,0.5]];portConstraint=eastwest;top=0;left=0;right=0;bottom=1;" vertex="1" parent="2vzEXNzIKZeWlVXa6jJ8-88">
          <mxGeometry y="30" width="180" height="30" as="geometry" />
        </mxCell>
        <mxCell id="2vzEXNzIKZeWlVXa6jJ8-90" value="" style="shape=partialRectangle;connectable=0;fillColor=none;top=0;left=0;bottom=0;right=0;fontStyle=1;overflow=hidden;whiteSpace=wrap;html=1;" vertex="1" parent="2vzEXNzIKZeWlVXa6jJ8-89">
          <mxGeometry width="30" height="30" as="geometry">
            <mxRectangle width="30" height="30" as="alternateBounds" />
          </mxGeometry>
        </mxCell>
        <mxCell id="2vzEXNzIKZeWlVXa6jJ8-91" value="" style="shape=partialRectangle;connectable=0;fillColor=none;top=0;left=0;bottom=0;right=0;align=left;spacingLeft=6;fontStyle=5;overflow=hidden;whiteSpace=wrap;html=1;" vertex="1" parent="2vzEXNzIKZeWlVXa6jJ8-89">
          <mxGeometry x="30" width="150" height="30" as="geometry">
            <mxRectangle width="150" height="30" as="alternateBounds" />
          </mxGeometry>
        </mxCell>
        <mxCell id="2vzEXNzIKZeWlVXa6jJ8-92" value="Состояние" style="shape=partialRectangle;fillColor=none;align=left;verticalAlign=middle;strokeColor=none;spacingLeft=34;rotatable=0;points=[[0,0.5],[1,0.5]];portConstraint=eastwest;dropTarget=0;shadow=0;fontFamily=Helvetica;fontSize=12;fontColor=default;" vertex="1" parent="1">
          <mxGeometry x="830" y="350" width="180" height="30" as="geometry" />
        </mxCell>
        <mxCell id="2vzEXNzIKZeWlVXa6jJ8-93" value="" style="shape=partialRectangle;top=0;left=0;bottom=0;fillColor=none;stokeWidth=1;align=left;verticalAlign=middle;spacingLeft=4;spacingRight=4;overflow=hidden;rotatable=0;points=[];portConstraint=eastwest;part=1;shadow=0;fontFamily=Helvetica;fontSize=12;fontColor=default;" vertex="1" connectable="0" parent="2vzEXNzIKZeWlVXa6jJ8-92">
          <mxGeometry width="30" height="30" as="geometry" />
        </mxCell>
        <mxCell id="2vzEXNzIKZeWlVXa6jJ8-94" value="Время отклика" style="shape=partialRectangle;fillColor=none;align=left;verticalAlign=middle;strokeColor=none;spacingLeft=34;rotatable=0;points=[[0,0.5],[1,0.5]];portConstraint=eastwest;dropTarget=0;shadow=0;fontFamily=Helvetica;fontSize=12;fontColor=default;" vertex="1" parent="1">
          <mxGeometry x="830" y="380" width="180" height="30" as="geometry" />
        </mxCell>
        <mxCell id="2vzEXNzIKZeWlVXa6jJ8-95" value="" style="shape=partialRectangle;top=0;left=0;bottom=0;fillColor=none;stokeWidth=1;align=left;verticalAlign=middle;spacingLeft=4;spacingRight=4;overflow=hidden;rotatable=0;points=[];portConstraint=eastwest;part=1;shadow=0;fontFamily=Helvetica;fontSize=12;fontColor=default;" vertex="1" connectable="0" parent="2vzEXNzIKZeWlVXa6jJ8-94">
          <mxGeometry width="30" height="30" as="geometry" />
        </mxCell>
        <mxCell id="2vzEXNzIKZeWlVXa6jJ8-96" value="&lt;font style=&quot;font-size: 30px;&quot;&gt;*&lt;/font&gt;" style="text;html=1;align=center;verticalAlign=middle;resizable=0;points=[];autosize=1;strokeColor=none;fillColor=none;" vertex="1" parent="1">
          <mxGeometry x="510" y="320" width="40" height="50" as="geometry" />
        </mxCell>
        <mxCell id="2vzEXNzIKZeWlVXa6jJ8-97" value="&lt;font style=&quot;font-size: 30px;&quot;&gt;*&lt;/font&gt;" style="text;html=1;align=center;verticalAlign=middle;resizable=0;points=[];autosize=1;strokeColor=none;fillColor=none;" vertex="1" parent="1">
          <mxGeometry x="540" y="405" width="40" height="50" as="geometry" />
        </mxCell>
        <mxCell id="2vzEXNzIKZeWlVXa6jJ8-98" style="edgeStyle=orthogonalEdgeStyle;rounded=0;orthogonalLoop=1;jettySize=auto;html=1;entryX=-0.021;entryY=-0.105;entryDx=0;entryDy=0;entryPerimeter=0;endArrow=ERmany;endFill=0;" edge="1" parent="1" source="2vzEXNzIKZeWlVXa6jJ8-8" target="2vzEXNzIKZeWlVXa6jJ8-74">
          <mxGeometry relative="1" as="geometry">
            <Array as="points">
              <mxPoint x="530" y="7" />
              <mxPoint x="530" y="7" />
            </Array>
          </mxGeometry>
        </mxCell>
        <mxCell id="2vzEXNzIKZeWlVXa6jJ8-99" value="&lt;font style=&quot;font-size: 30px;&quot;&gt;*&lt;/font&gt;" style="text;html=1;align=center;verticalAlign=middle;resizable=0;points=[];autosize=1;strokeColor=none;fillColor=none;" vertex="1" parent="1">
          <mxGeometry x="800" y="-30" width="40" height="50" as="geometry" />
        </mxCell>
        <mxCell id="2vzEXNzIKZeWlVXa6jJ8-100" style="edgeStyle=orthogonalEdgeStyle;rounded=0;orthogonalLoop=1;jettySize=auto;html=1;entryX=1.038;entryY=-0.047;entryDx=0;entryDy=0;entryPerimeter=0;endArrow=ERmany;endFill=0;" edge="1" parent="1" source="2vzEXNzIKZeWlVXa6jJ8-29" target="2vzEXNzIKZeWlVXa6jJ8-76">
          <mxGeometry relative="1" as="geometry" />
        </mxCell>
        <mxCell id="2vzEXNzIKZeWlVXa6jJ8-101" value="&lt;font style=&quot;font-size: 30px;&quot;&gt;*&lt;/font&gt;" style="text;html=1;align=center;verticalAlign=middle;resizable=0;points=[];autosize=1;strokeColor=none;fillColor=none;" vertex="1" parent="1">
          <mxGeometry x="1010" width="40" height="50" as="geometry" />
        </mxCell>
        <mxCell id="2vzEXNzIKZeWlVXa6jJ8-102" value="&lt;font style=&quot;font-size: 30px;&quot;&gt;*&lt;/font&gt;" style="text;html=1;align=center;verticalAlign=middle;resizable=0;points=[];autosize=1;strokeColor=none;fillColor=none;" vertex="1" parent="1">
          <mxGeometry x="870" y="295" width="40" height="50" as="geometry" />
        </mxCell>
        <mxCell id="2vzEXNzIKZeWlVXa6jJ8-103" value="&lt;font style=&quot;font-size: 30px;&quot;&gt;*&lt;/font&gt;" style="text;html=1;align=center;verticalAlign=middle;resizable=0;points=[];autosize=1;strokeColor=none;fillColor=none;" vertex="1" parent="1">
          <mxGeometry x="930" y="295" width="40" height="50" as="geometry" />
        </mxCell>
        <mxCell id="2vzEXNzIKZeWlVXa6jJ8-104" value="Просмотр вакансии" style="shape=table;startSize=30;container=1;collapsible=1;childLayout=tableLayout;fixedRows=1;rowLines=0;fontStyle=1;align=center;resizeLast=1;html=1;" vertex="1" parent="1">
          <mxGeometry x="450" y="345" width="180" height="60" as="geometry" />
        </mxCell>
        <mxCell id="2vzEXNzIKZeWlVXa6jJ8-105" value="" style="shape=tableRow;horizontal=0;startSize=0;swimlaneHead=0;swimlaneBody=0;fillColor=none;collapsible=0;dropTarget=0;points=[[0,0.5],[1,0.5]];portConstraint=eastwest;top=0;left=0;right=0;bottom=1;" vertex="1" parent="2vzEXNzIKZeWlVXa6jJ8-104">
          <mxGeometry y="30" width="180" height="30" as="geometry" />
        </mxCell>
        <mxCell id="2vzEXNzIKZeWlVXa6jJ8-106" value="" style="shape=partialRectangle;connectable=0;fillColor=none;top=0;left=0;bottom=0;right=0;fontStyle=1;overflow=hidden;whiteSpace=wrap;html=1;" vertex="1" parent="2vzEXNzIKZeWlVXa6jJ8-105">
          <mxGeometry width="30" height="30" as="geometry">
            <mxRectangle width="30" height="30" as="alternateBounds" />
          </mxGeometry>
        </mxCell>
        <mxCell id="2vzEXNzIKZeWlVXa6jJ8-107" value="" style="shape=partialRectangle;connectable=0;fillColor=none;top=0;left=0;bottom=0;right=0;align=left;spacingLeft=6;fontStyle=5;overflow=hidden;whiteSpace=wrap;html=1;" vertex="1" parent="2vzEXNzIKZeWlVXa6jJ8-105">
          <mxGeometry x="30" width="150" height="30" as="geometry">
            <mxRectangle width="150" height="30" as="alternateBounds" />
          </mxGeometry>
        </mxCell>
        <mxCell id="2vzEXNzIKZeWlVXa6jJ8-108" value="Время просмотра" style="shape=partialRectangle;fillColor=none;align=left;verticalAlign=middle;strokeColor=none;spacingLeft=34;rotatable=0;points=[[0,0.5],[1,0.5]];portConstraint=eastwest;dropTarget=0;shadow=0;fontFamily=Helvetica;fontSize=12;fontColor=default;" vertex="1" parent="1">
          <mxGeometry x="450" y="375" width="180" height="30" as="geometry" />
        </mxCell>
        <mxCell id="2vzEXNzIKZeWlVXa6jJ8-109" value="" style="shape=partialRectangle;top=0;left=0;bottom=0;fillColor=none;stokeWidth=1;align=left;verticalAlign=middle;spacingLeft=4;spacingRight=4;overflow=hidden;rotatable=0;points=[];portConstraint=eastwest;part=1;shadow=0;fontFamily=Helvetica;fontSize=12;fontColor=default;" vertex="1" connectable="0" parent="2vzEXNzIKZeWlVXa6jJ8-108">
          <mxGeometry width="30" height="30" as="geometry" />
        </mxCell>
        <mxCell id="2vzEXNzIKZeWlVXa6jJ8-110" value="Просмотр резюме" style="shape=table;startSize=30;container=1;collapsible=1;childLayout=tableLayout;fixedRows=1;rowLines=0;fontStyle=1;align=center;resizeLast=1;html=1;" vertex="1" parent="1">
          <mxGeometry x="830" y="170" width="180" height="60" as="geometry" />
        </mxCell>
        <mxCell id="2vzEXNzIKZeWlVXa6jJ8-111" value="" style="shape=tableRow;horizontal=0;startSize=0;swimlaneHead=0;swimlaneBody=0;fillColor=none;collapsible=0;dropTarget=0;points=[[0,0.5],[1,0.5]];portConstraint=eastwest;top=0;left=0;right=0;bottom=1;" vertex="1" parent="2vzEXNzIKZeWlVXa6jJ8-110">
          <mxGeometry y="30" width="180" height="30" as="geometry" />
        </mxCell>
        <mxCell id="2vzEXNzIKZeWlVXa6jJ8-112" value="" style="shape=partialRectangle;connectable=0;fillColor=none;top=0;left=0;bottom=0;right=0;fontStyle=1;overflow=hidden;whiteSpace=wrap;html=1;" vertex="1" parent="2vzEXNzIKZeWlVXa6jJ8-111">
          <mxGeometry width="30" height="30" as="geometry">
            <mxRectangle width="30" height="30" as="alternateBounds" />
          </mxGeometry>
        </mxCell>
        <mxCell id="2vzEXNzIKZeWlVXa6jJ8-113" value="" style="shape=partialRectangle;connectable=0;fillColor=none;top=0;left=0;bottom=0;right=0;align=left;spacingLeft=6;fontStyle=5;overflow=hidden;whiteSpace=wrap;html=1;" vertex="1" parent="2vzEXNzIKZeWlVXa6jJ8-111">
          <mxGeometry x="30" width="150" height="30" as="geometry">
            <mxRectangle width="150" height="30" as="alternateBounds" />
          </mxGeometry>
        </mxCell>
        <mxCell id="2vzEXNzIKZeWlVXa6jJ8-114" value="Время просмотра" style="shape=partialRectangle;fillColor=none;align=left;verticalAlign=middle;strokeColor=none;spacingLeft=34;rotatable=0;points=[[0,0.5],[1,0.5]];portConstraint=eastwest;dropTarget=0;shadow=0;fontFamily=Helvetica;fontSize=12;fontColor=default;" vertex="1" parent="1">
          <mxGeometry x="830" y="200" width="180" height="30" as="geometry" />
        </mxCell>
        <mxCell id="2vzEXNzIKZeWlVXa6jJ8-115" value="" style="shape=partialRectangle;top=0;left=0;bottom=0;fillColor=none;stokeWidth=1;align=left;verticalAlign=middle;spacingLeft=4;spacingRight=4;overflow=hidden;rotatable=0;points=[];portConstraint=eastwest;part=1;shadow=0;fontFamily=Helvetica;fontSize=12;fontColor=default;" vertex="1" connectable="0" parent="2vzEXNzIKZeWlVXa6jJ8-114">
          <mxGeometry width="30" height="30" as="geometry" />
        </mxCell>
        <mxCell id="2vzEXNzIKZeWlVXa6jJ8-116" style="edgeStyle=orthogonalEdgeStyle;rounded=0;orthogonalLoop=1;jettySize=auto;html=1;entryX=0.5;entryY=0;entryDx=0;entryDy=0;endArrow=ERmany;endFill=0;" edge="1" parent="1" source="2vzEXNzIKZeWlVXa6jJ8-11" target="2vzEXNzIKZeWlVXa6jJ8-54">
          <mxGeometry relative="1" as="geometry" />
        </mxCell>
        <mxCell id="2vzEXNzIKZeWlVXa6jJ8-117" value="&lt;font style=&quot;font-size: 30px;&quot;&gt;*&lt;/font&gt;" style="text;html=1;align=center;verticalAlign=middle;resizable=0;points=[];autosize=1;strokeColor=none;fillColor=none;" vertex="1" parent="1">
          <mxGeometry x="930" y="145" width="40" height="50" as="geometry" />
        </mxCell>
        <mxCell id="2vzEXNzIKZeWlVXa6jJ8-118" value="&lt;font style=&quot;font-size: 30px;&quot;&gt;*&lt;/font&gt;" style="text;html=1;align=center;verticalAlign=middle;resizable=0;points=[];autosize=1;strokeColor=none;fillColor=none;" vertex="1" parent="1">
          <mxGeometry x="850" y="145" width="40" height="50" as="geometry" />
        </mxCell>
        <mxCell id="2vzEXNzIKZeWlVXa6jJ8-119" value="Сообщение работодателю" style="shape=table;startSize=30;container=1;collapsible=1;childLayout=tableLayout;fixedRows=1;rowLines=0;fontStyle=1;align=center;resizeLast=1;html=1;" vertex="1" parent="1">
          <mxGeometry x="650" y="-340" width="180" height="150" as="geometry" />
        </mxCell>
        <mxCell id="2vzEXNzIKZeWlVXa6jJ8-120" value="" style="shape=tableRow;horizontal=0;startSize=0;swimlaneHead=0;swimlaneBody=0;fillColor=none;collapsible=0;dropTarget=0;points=[[0,0.5],[1,0.5]];portConstraint=eastwest;top=0;left=0;right=0;bottom=1;" vertex="1" parent="2vzEXNzIKZeWlVXa6jJ8-119">
          <mxGeometry y="30" width="180" height="30" as="geometry" />
        </mxCell>
        <mxCell id="2vzEXNzIKZeWlVXa6jJ8-121" value="PK" style="shape=partialRectangle;connectable=0;fillColor=none;top=0;left=0;bottom=0;right=0;fontStyle=1;overflow=hidden;whiteSpace=wrap;html=1;" vertex="1" parent="2vzEXNzIKZeWlVXa6jJ8-120">
          <mxGeometry width="30" height="30" as="geometry">
            <mxRectangle width="30" height="30" as="alternateBounds" />
          </mxGeometry>
        </mxCell>
        <mxCell id="2vzEXNzIKZeWlVXa6jJ8-122" value="id_сообщения" style="shape=partialRectangle;connectable=0;fillColor=none;top=0;left=0;bottom=0;right=0;align=left;spacingLeft=6;fontStyle=5;overflow=hidden;whiteSpace=wrap;html=1;" vertex="1" parent="2vzEXNzIKZeWlVXa6jJ8-120">
          <mxGeometry x="30" width="150" height="30" as="geometry">
            <mxRectangle width="150" height="30" as="alternateBounds" />
          </mxGeometry>
        </mxCell>
        <mxCell id="2vzEXNzIKZeWlVXa6jJ8-123" value="Содержание" style="shape=partialRectangle;fillColor=none;align=left;verticalAlign=middle;strokeColor=none;spacingLeft=34;rotatable=0;points=[[0,0.5],[1,0.5]];portConstraint=eastwest;dropTarget=0;shadow=0;fontFamily=Helvetica;fontSize=12;fontColor=default;" vertex="1" parent="1">
          <mxGeometry x="650" y="-275" width="180" height="30" as="geometry" />
        </mxCell>
        <mxCell id="2vzEXNzIKZeWlVXa6jJ8-124" value="" style="shape=partialRectangle;top=0;left=0;bottom=0;fillColor=none;stokeWidth=1;align=left;verticalAlign=middle;spacingLeft=4;spacingRight=4;overflow=hidden;rotatable=0;points=[];portConstraint=eastwest;part=1;shadow=0;fontFamily=Helvetica;fontSize=12;fontColor=default;" vertex="1" connectable="0" parent="2vzEXNzIKZeWlVXa6jJ8-123">
          <mxGeometry width="30" height="30" as="geometry" />
        </mxCell>
        <mxCell id="2vzEXNzIKZeWlVXa6jJ8-125" value="Время отправки" style="shape=partialRectangle;fillColor=none;align=left;verticalAlign=middle;strokeColor=none;spacingLeft=34;rotatable=0;points=[[0,0.5],[1,0.5]];portConstraint=eastwest;dropTarget=0;shadow=0;fontFamily=Helvetica;fontSize=12;fontColor=default;" vertex="1" parent="1">
          <mxGeometry x="650" y="-245" width="180" height="30" as="geometry" />
        </mxCell>
        <mxCell id="2vzEXNzIKZeWlVXa6jJ8-126" value="" style="shape=partialRectangle;top=0;left=0;bottom=0;fillColor=none;stokeWidth=1;align=left;verticalAlign=middle;spacingLeft=4;spacingRight=4;overflow=hidden;rotatable=0;points=[];portConstraint=eastwest;part=1;shadow=0;fontFamily=Helvetica;fontSize=12;fontColor=default;" vertex="1" connectable="0" parent="2vzEXNzIKZeWlVXa6jJ8-125">
          <mxGeometry width="30" height="30" as="geometry" />
        </mxCell>
        <mxCell id="2vzEXNzIKZeWlVXa6jJ8-127" value="Статус" style="shape=partialRectangle;fillColor=none;align=left;verticalAlign=middle;strokeColor=none;spacingLeft=34;rotatable=0;points=[[0,0.5],[1,0.5]];portConstraint=eastwest;dropTarget=0;shadow=0;fontFamily=Helvetica;fontSize=12;fontColor=default;" vertex="1" parent="1">
          <mxGeometry x="650" y="-220" width="180" height="30" as="geometry" />
        </mxCell>
        <mxCell id="2vzEXNzIKZeWlVXa6jJ8-128" value="" style="shape=partialRectangle;top=0;left=0;bottom=0;fillColor=none;stokeWidth=1;align=left;verticalAlign=middle;spacingLeft=4;spacingRight=4;overflow=hidden;rotatable=0;points=[];portConstraint=eastwest;part=1;shadow=0;fontFamily=Helvetica;fontSize=12;fontColor=default;" vertex="1" connectable="0" parent="2vzEXNzIKZeWlVXa6jJ8-127">
          <mxGeometry width="30" height="30" as="geometry" />
        </mxCell>
        <mxCell id="2vzEXNzIKZeWlVXa6jJ8-129" value="Сообщение соискателю" style="shape=table;startSize=30;container=1;collapsible=1;childLayout=tableLayout;fixedRows=1;rowLines=0;fontStyle=1;align=center;resizeLast=1;html=1;" vertex="1" parent="1">
          <mxGeometry x="650" y="-180" width="180" height="150" as="geometry" />
        </mxCell>
        <mxCell id="2vzEXNzIKZeWlVXa6jJ8-130" value="" style="shape=tableRow;horizontal=0;startSize=0;swimlaneHead=0;swimlaneBody=0;fillColor=none;collapsible=0;dropTarget=0;points=[[0,0.5],[1,0.5]];portConstraint=eastwest;top=0;left=0;right=0;bottom=1;" vertex="1" parent="2vzEXNzIKZeWlVXa6jJ8-129">
          <mxGeometry y="30" width="180" height="30" as="geometry" />
        </mxCell>
        <mxCell id="2vzEXNzIKZeWlVXa6jJ8-131" value="PK" style="shape=partialRectangle;connectable=0;fillColor=none;top=0;left=0;bottom=0;right=0;fontStyle=1;overflow=hidden;whiteSpace=wrap;html=1;" vertex="1" parent="2vzEXNzIKZeWlVXa6jJ8-130">
          <mxGeometry width="30" height="30" as="geometry">
            <mxRectangle width="30" height="30" as="alternateBounds" />
          </mxGeometry>
        </mxCell>
        <mxCell id="2vzEXNzIKZeWlVXa6jJ8-132" value="id_сообщения" style="shape=partialRectangle;connectable=0;fillColor=none;top=0;left=0;bottom=0;right=0;align=left;spacingLeft=6;fontStyle=5;overflow=hidden;whiteSpace=wrap;html=1;" vertex="1" parent="2vzEXNzIKZeWlVXa6jJ8-130">
          <mxGeometry x="30" width="150" height="30" as="geometry">
            <mxRectangle width="150" height="30" as="alternateBounds" />
          </mxGeometry>
        </mxCell>
        <mxCell id="2vzEXNzIKZeWlVXa6jJ8-133" value="Содержание" style="shape=partialRectangle;fillColor=none;align=left;verticalAlign=middle;strokeColor=none;spacingLeft=34;rotatable=0;points=[[0,0.5],[1,0.5]];portConstraint=eastwest;dropTarget=0;shadow=0;fontFamily=Helvetica;fontSize=12;fontColor=default;" vertex="1" parent="1">
          <mxGeometry x="650" y="-115" width="180" height="30" as="geometry" />
        </mxCell>
        <mxCell id="2vzEXNzIKZeWlVXa6jJ8-134" value="" style="shape=partialRectangle;top=0;left=0;bottom=0;fillColor=none;stokeWidth=1;align=left;verticalAlign=middle;spacingLeft=4;spacingRight=4;overflow=hidden;rotatable=0;points=[];portConstraint=eastwest;part=1;shadow=0;fontFamily=Helvetica;fontSize=12;fontColor=default;" vertex="1" connectable="0" parent="2vzEXNzIKZeWlVXa6jJ8-133">
          <mxGeometry width="30" height="30" as="geometry" />
        </mxCell>
        <mxCell id="2vzEXNzIKZeWlVXa6jJ8-135" value="Время отправки" style="shape=partialRectangle;fillColor=none;align=left;verticalAlign=middle;strokeColor=none;spacingLeft=34;rotatable=0;points=[[0,0.5],[1,0.5]];portConstraint=eastwest;dropTarget=0;shadow=0;fontFamily=Helvetica;fontSize=12;fontColor=default;" vertex="1" parent="1">
          <mxGeometry x="650" y="-85" width="180" height="30" as="geometry" />
        </mxCell>
        <mxCell id="2vzEXNzIKZeWlVXa6jJ8-136" value="" style="shape=partialRectangle;top=0;left=0;bottom=0;fillColor=none;stokeWidth=1;align=left;verticalAlign=middle;spacingLeft=4;spacingRight=4;overflow=hidden;rotatable=0;points=[];portConstraint=eastwest;part=1;shadow=0;fontFamily=Helvetica;fontSize=12;fontColor=default;" vertex="1" connectable="0" parent="2vzEXNzIKZeWlVXa6jJ8-135">
          <mxGeometry width="30" height="30" as="geometry" />
        </mxCell>
        <mxCell id="2vzEXNzIKZeWlVXa6jJ8-137" value="Статус" style="shape=partialRectangle;fillColor=none;align=left;verticalAlign=middle;strokeColor=none;spacingLeft=34;rotatable=0;points=[[0,0.5],[1,0.5]];portConstraint=eastwest;dropTarget=0;shadow=0;fontFamily=Helvetica;fontSize=12;fontColor=default;" vertex="1" parent="1">
          <mxGeometry x="650" y="-60" width="180" height="30" as="geometry" />
        </mxCell>
        <mxCell id="2vzEXNzIKZeWlVXa6jJ8-138" value="" style="shape=partialRectangle;top=0;left=0;bottom=0;fillColor=none;stokeWidth=1;align=left;verticalAlign=middle;spacingLeft=4;spacingRight=4;overflow=hidden;rotatable=0;points=[];portConstraint=eastwest;part=1;shadow=0;fontFamily=Helvetica;fontSize=12;fontColor=default;" vertex="1" connectable="0" parent="2vzEXNzIKZeWlVXa6jJ8-137">
          <mxGeometry width="30" height="30" as="geometry" />
        </mxCell>
        <mxCell id="2vzEXNzIKZeWlVXa6jJ8-139" value="&lt;font style=&quot;font-size: 30px;&quot;&gt;*&lt;/font&gt;" style="text;html=1;align=center;verticalAlign=middle;resizable=0;points=[];autosize=1;strokeColor=none;fillColor=none;" vertex="1" parent="1">
          <mxGeometry x="430" y="540" width="40" height="50" as="geometry" />
        </mxCell>
        <mxCell id="2vzEXNzIKZeWlVXa6jJ8-140" style="edgeStyle=orthogonalEdgeStyle;rounded=0;orthogonalLoop=1;jettySize=auto;html=1;entryX=-0.171;entryY=0.24;entryDx=0;entryDy=0;entryPerimeter=0;endArrow=ERmany;endFill=0;" edge="1" parent="1" source="2vzEXNzIKZeWlVXa6jJ8-1" target="2vzEXNzIKZeWlVXa6jJ8-87">
          <mxGeometry relative="1" as="geometry" />
        </mxCell>
        <mxCell id="2vzEXNzIKZeWlVXa6jJ8-141" style="edgeStyle=orthogonalEdgeStyle;rounded=0;orthogonalLoop=1;jettySize=auto;html=1;exitX=0.25;exitY=0;exitDx=0;exitDy=0;entryX=1;entryY=0.5;entryDx=0;entryDy=0;endArrow=ERmany;endFill=0;" edge="1" parent="1" target="2vzEXNzIKZeWlVXa6jJ8-123">
          <mxGeometry relative="1" as="geometry">
            <mxPoint x="1210" y="159.45999999999998" as="sourcePoint" />
            <mxPoint x="1565" y="-60.53999999999999" as="targetPoint" />
            <Array as="points">
              <mxPoint x="1230" y="160" />
              <mxPoint x="1230" y="-260" />
            </Array>
          </mxGeometry>
        </mxCell>
        <mxCell id="2vzEXNzIKZeWlVXa6jJ8-142" style="edgeStyle=orthogonalEdgeStyle;rounded=0;orthogonalLoop=1;jettySize=auto;html=1;entryX=0.303;entryY=-0.074;entryDx=0;entryDy=0;entryPerimeter=0;endArrow=ERmany;endFill=0;exitX=1.015;exitY=0.083;exitDx=0;exitDy=0;exitPerimeter=0;" edge="1" parent="1" source="2vzEXNzIKZeWlVXa6jJ8-60" target="2vzEXNzIKZeWlVXa6jJ8-110">
          <mxGeometry relative="1" as="geometry">
            <mxPoint x="976.5" y="139.53" as="sourcePoint" />
            <mxPoint x="883.5" y="88.53" as="targetPoint" />
          </mxGeometry>
        </mxCell>
        <mxCell id="2vzEXNzIKZeWlVXa6jJ8-143" style="edgeStyle=orthogonalEdgeStyle;rounded=0;orthogonalLoop=1;jettySize=auto;html=1;entryX=0.303;entryY=-0.074;entryDx=0;entryDy=0;entryPerimeter=0;endArrow=ERmany;endFill=0;exitX=0;exitY=0.5;exitDx=0;exitDy=0;" edge="1" parent="1" source="2vzEXNzIKZeWlVXa6jJ8-30">
          <mxGeometry relative="1" as="geometry">
            <mxPoint x="893.76" y="136" as="sourcePoint" />
            <mxPoint x="965.76" y="170" as="targetPoint" />
          </mxGeometry>
        </mxCell>
        <mxCell id="2vzEXNzIKZeWlVXa6jJ8-144" style="edgeStyle=orthogonalEdgeStyle;rounded=0;orthogonalLoop=1;jettySize=auto;html=1;entryX=1;entryY=0.5;entryDx=0;entryDy=0;endArrow=ERmany;endFill=0;exitX=0.794;exitY=1.025;exitDx=0;exitDy=0;exitPerimeter=0;" edge="1" parent="1" source="2vzEXNzIKZeWlVXa6jJ8-43" target="2vzEXNzIKZeWlVXa6jJ8-50">
          <mxGeometry relative="1" as="geometry">
            <mxPoint x="710" y="506" as="sourcePoint" />
            <mxPoint x="782" y="540" as="targetPoint" />
            <Array as="points">
              <mxPoint x="1173" y="540" />
            </Array>
          </mxGeometry>
        </mxCell>
        <mxCell id="2vzEXNzIKZeWlVXa6jJ8-161" value="Соискатель" style="shape=table;startSize=30;container=1;collapsible=1;childLayout=tableLayout;fixedRows=1;rowLines=0;fontStyle=1;align=center;resizeLast=1;html=1;movable=1;resizable=1;rotatable=1;deletable=1;editable=1;locked=0;connectable=1;" vertex="1" parent="1">
          <mxGeometry x="1450" y="5" width="240" height="220" as="geometry" />
        </mxCell>
        <mxCell id="2vzEXNzIKZeWlVXa6jJ8-162" value="" style="shape=tableRow;horizontal=0;startSize=0;swimlaneHead=0;swimlaneBody=0;fillColor=none;collapsible=0;dropTarget=0;points=[[0,0.5],[1,0.5]];portConstraint=eastwest;top=0;left=0;right=0;bottom=1;" vertex="1" parent="2vzEXNzIKZeWlVXa6jJ8-161">
          <mxGeometry y="30" width="240" height="30" as="geometry" />
        </mxCell>
        <mxCell id="2vzEXNzIKZeWlVXa6jJ8-163" value="PK" style="shape=partialRectangle;connectable=0;fillColor=none;top=0;left=0;bottom=0;right=0;fontStyle=1;overflow=hidden;whiteSpace=wrap;html=1;" vertex="1" parent="2vzEXNzIKZeWlVXa6jJ8-162">
          <mxGeometry width="30" height="30" as="geometry">
            <mxRectangle width="30" height="30" as="alternateBounds" />
          </mxGeometry>
        </mxCell>
        <mxCell id="2vzEXNzIKZeWlVXa6jJ8-164" value="Номер телефона&amp;nbsp; &amp;nbsp;VARCHAR(30)" style="shape=partialRectangle;connectable=0;fillColor=none;top=0;left=0;bottom=0;right=0;align=left;spacingLeft=6;fontStyle=5;overflow=hidden;whiteSpace=wrap;html=1;" vertex="1" parent="2vzEXNzIKZeWlVXa6jJ8-162">
          <mxGeometry x="30" width="210" height="30" as="geometry">
            <mxRectangle width="210" height="30" as="alternateBounds" />
          </mxGeometry>
        </mxCell>
        <mxCell id="2vzEXNzIKZeWlVXa6jJ8-165" value="" style="shape=tableRow;horizontal=0;startSize=0;swimlaneHead=0;swimlaneBody=0;fillColor=none;collapsible=0;dropTarget=0;points=[[0,0.5],[1,0.5]];portConstraint=eastwest;top=0;left=0;right=0;bottom=0;" vertex="1" parent="2vzEXNzIKZeWlVXa6jJ8-161">
          <mxGeometry y="60" width="240" height="30" as="geometry" />
        </mxCell>
        <mxCell id="2vzEXNzIKZeWlVXa6jJ8-166" value="" style="shape=partialRectangle;connectable=0;fillColor=none;top=0;left=0;bottom=0;right=0;editable=1;overflow=hidden;whiteSpace=wrap;html=1;" vertex="1" parent="2vzEXNzIKZeWlVXa6jJ8-165">
          <mxGeometry width="30" height="30" as="geometry">
            <mxRectangle width="30" height="30" as="alternateBounds" />
          </mxGeometry>
        </mxCell>
        <mxCell id="2vzEXNzIKZeWlVXa6jJ8-167" value="Электронная почта VARCHAR(300)" style="shape=partialRectangle;connectable=0;fillColor=none;top=0;left=0;bottom=0;right=0;align=left;spacingLeft=6;overflow=hidden;whiteSpace=wrap;html=1;" vertex="1" parent="2vzEXNzIKZeWlVXa6jJ8-165">
          <mxGeometry x="30" width="210" height="30" as="geometry">
            <mxRectangle width="210" height="30" as="alternateBounds" />
          </mxGeometry>
        </mxCell>
        <mxCell id="2vzEXNzIKZeWlVXa6jJ8-168" value="" style="shape=tableRow;horizontal=0;startSize=0;swimlaneHead=0;swimlaneBody=0;fillColor=none;collapsible=0;dropTarget=0;points=[[0,0.5],[1,0.5]];portConstraint=eastwest;top=0;left=0;right=0;bottom=0;" vertex="1" parent="2vzEXNzIKZeWlVXa6jJ8-161">
          <mxGeometry y="90" width="240" height="30" as="geometry" />
        </mxCell>
        <mxCell id="2vzEXNzIKZeWlVXa6jJ8-169" value="" style="shape=partialRectangle;connectable=0;fillColor=none;top=0;left=0;bottom=0;right=0;editable=1;overflow=hidden;whiteSpace=wrap;html=1;" vertex="1" parent="2vzEXNzIKZeWlVXa6jJ8-168">
          <mxGeometry width="30" height="30" as="geometry">
            <mxRectangle width="30" height="30" as="alternateBounds" />
          </mxGeometry>
        </mxCell>
        <mxCell id="2vzEXNzIKZeWlVXa6jJ8-170" value="ФИО&amp;nbsp; &amp;nbsp; &amp;nbsp; &amp;nbsp; &amp;nbsp; &amp;nbsp; &amp;nbsp; &amp;nbsp; &amp;nbsp; &amp;nbsp; &amp;nbsp; &amp;nbsp; &amp;nbsp;VARCHAR(300)" style="shape=partialRectangle;connectable=0;fillColor=none;top=0;left=0;bottom=0;right=0;align=left;spacingLeft=6;overflow=hidden;whiteSpace=wrap;html=1;" vertex="1" parent="2vzEXNzIKZeWlVXa6jJ8-168">
          <mxGeometry x="30" width="210" height="30" as="geometry">
            <mxRectangle width="210" height="30" as="alternateBounds" />
          </mxGeometry>
        </mxCell>
        <mxCell id="2vzEXNzIKZeWlVXa6jJ8-171" value="" style="shape=tableRow;horizontal=0;startSize=0;swimlaneHead=0;swimlaneBody=0;fillColor=none;collapsible=0;dropTarget=0;points=[[0,0.5],[1,0.5]];portConstraint=eastwest;top=0;left=0;right=0;bottom=0;" vertex="1" parent="2vzEXNzIKZeWlVXa6jJ8-161">
          <mxGeometry y="120" width="240" height="35" as="geometry" />
        </mxCell>
        <mxCell id="2vzEXNzIKZeWlVXa6jJ8-172" value="" style="shape=partialRectangle;connectable=0;fillColor=none;top=0;left=0;bottom=0;right=0;editable=1;overflow=hidden;whiteSpace=wrap;html=1;" vertex="1" parent="2vzEXNzIKZeWlVXa6jJ8-171">
          <mxGeometry width="30" height="35" as="geometry">
            <mxRectangle width="30" height="35" as="alternateBounds" />
          </mxGeometry>
        </mxCell>
        <mxCell id="2vzEXNzIKZeWlVXa6jJ8-173" value="Местоположение&amp;nbsp; &amp;nbsp; VARCHAR(100)" style="shape=partialRectangle;connectable=0;fillColor=none;top=0;left=0;bottom=0;right=0;align=left;spacingLeft=6;overflow=hidden;whiteSpace=wrap;html=1;" vertex="1" parent="2vzEXNzIKZeWlVXa6jJ8-171">
          <mxGeometry x="30" width="210" height="35" as="geometry">
            <mxRectangle width="210" height="35" as="alternateBounds" />
          </mxGeometry>
        </mxCell>
        <mxCell id="2vzEXNzIKZeWlVXa6jJ8-174" value="Дата рождения        DATE" style="shape=partialRectangle;align=left;verticalAlign=middle;spacingLeft=34;rotatable=0;points=[[0,0.5],[1,0.5]];portConstraint=eastwest;dropTarget=0;shadow=0;fillColor=none;strokeColor=none;" vertex="1" parent="1">
          <mxGeometry x="1450" y="155" width="180" height="30" as="geometry" />
        </mxCell>
        <mxCell id="2vzEXNzIKZeWlVXa6jJ8-175" value="" style="shape=partialRectangle;top=0;left=0;bottom=0;fillColor=none;stokeWidth=1;align=left;verticalAlign=middle;spacingLeft=4;spacingRight=4;overflow=hidden;rotatable=0;points=[];portConstraint=eastwest;part=1;" vertex="1" connectable="0" parent="2vzEXNzIKZeWlVXa6jJ8-174">
          <mxGeometry width="30" height="30" as="geometry" />
        </mxCell>
        <mxCell id="2vzEXNzIKZeWlVXa6jJ8-176" value="Пароль                    VARCHAR(200)" style="shape=partialRectangle;fillColor=none;align=left;verticalAlign=middle;strokeColor=none;spacingLeft=34;rotatable=0;points=[[0,0.5],[1,0.5]];portConstraint=eastwest;dropTarget=0;shadow=0;fontFamily=Helvetica;fontSize=12;fontColor=default;" vertex="1" parent="1">
          <mxGeometry x="1450" y="185" width="180" height="30" as="geometry" />
        </mxCell>
        <mxCell id="2vzEXNzIKZeWlVXa6jJ8-177" value="" style="shape=partialRectangle;top=0;left=0;bottom=0;fillColor=none;stokeWidth=1;align=left;verticalAlign=middle;spacingLeft=4;spacingRight=4;overflow=hidden;rotatable=0;points=[];portConstraint=eastwest;part=1;shadow=0;fontFamily=Helvetica;fontSize=12;fontColor=default;" vertex="1" connectable="0" parent="2vzEXNzIKZeWlVXa6jJ8-176">
          <mxGeometry width="30" height="30" as="geometry" />
        </mxCell>
        <mxCell id="2vzEXNzIKZeWlVXa6jJ8-178" value="Работодатель" style="shape=table;startSize=30;container=1;collapsible=1;childLayout=tableLayout;fixedRows=1;rowLines=0;fontStyle=1;align=center;resizeLast=1;html=1;movable=1;resizable=1;rotatable=1;deletable=1;editable=1;locked=0;connectable=1;" vertex="1" parent="1">
          <mxGeometry x="2125" y="665" width="180" height="180" as="geometry" />
        </mxCell>
        <mxCell id="2vzEXNzIKZeWlVXa6jJ8-179" value="" style="shape=tableRow;horizontal=0;startSize=0;swimlaneHead=0;swimlaneBody=0;fillColor=none;collapsible=0;dropTarget=0;points=[[0,0.5],[1,0.5]];portConstraint=eastwest;top=0;left=0;right=0;bottom=1;" vertex="1" parent="2vzEXNzIKZeWlVXa6jJ8-178">
          <mxGeometry y="30" width="180" height="30" as="geometry" />
        </mxCell>
        <mxCell id="2vzEXNzIKZeWlVXa6jJ8-180" value="PK" style="shape=partialRectangle;connectable=0;fillColor=none;top=0;left=0;bottom=0;right=0;fontStyle=1;overflow=hidden;whiteSpace=wrap;html=1;" vertex="1" parent="2vzEXNzIKZeWlVXa6jJ8-179">
          <mxGeometry width="30" height="30" as="geometry">
            <mxRectangle width="30" height="30" as="alternateBounds" />
          </mxGeometry>
        </mxCell>
        <mxCell id="2vzEXNzIKZeWlVXa6jJ8-181" value="Номер телефона" style="shape=partialRectangle;connectable=0;fillColor=none;top=0;left=0;bottom=0;right=0;align=left;spacingLeft=6;fontStyle=5;overflow=hidden;whiteSpace=wrap;html=1;" vertex="1" parent="2vzEXNzIKZeWlVXa6jJ8-179">
          <mxGeometry x="30" width="150" height="30" as="geometry">
            <mxRectangle width="150" height="30" as="alternateBounds" />
          </mxGeometry>
        </mxCell>
        <mxCell id="2vzEXNzIKZeWlVXa6jJ8-182" value="" style="shape=tableRow;horizontal=0;startSize=0;swimlaneHead=0;swimlaneBody=0;fillColor=none;collapsible=0;dropTarget=0;points=[[0,0.5],[1,0.5]];portConstraint=eastwest;top=0;left=0;right=0;bottom=0;" vertex="1" parent="2vzEXNzIKZeWlVXa6jJ8-178">
          <mxGeometry y="60" width="180" height="30" as="geometry" />
        </mxCell>
        <mxCell id="2vzEXNzIKZeWlVXa6jJ8-183" value="" style="shape=partialRectangle;connectable=0;fillColor=none;top=0;left=0;bottom=0;right=0;editable=1;overflow=hidden;whiteSpace=wrap;html=1;" vertex="1" parent="2vzEXNzIKZeWlVXa6jJ8-182">
          <mxGeometry width="30" height="30" as="geometry">
            <mxRectangle width="30" height="30" as="alternateBounds" />
          </mxGeometry>
        </mxCell>
        <mxCell id="2vzEXNzIKZeWlVXa6jJ8-184" value="Электронная почта" style="shape=partialRectangle;connectable=0;fillColor=none;top=0;left=0;bottom=0;right=0;align=left;spacingLeft=6;overflow=hidden;whiteSpace=wrap;html=1;" vertex="1" parent="2vzEXNzIKZeWlVXa6jJ8-182">
          <mxGeometry x="30" width="150" height="30" as="geometry">
            <mxRectangle width="150" height="30" as="alternateBounds" />
          </mxGeometry>
        </mxCell>
        <mxCell id="2vzEXNzIKZeWlVXa6jJ8-185" value="" style="shape=tableRow;horizontal=0;startSize=0;swimlaneHead=0;swimlaneBody=0;fillColor=none;collapsible=0;dropTarget=0;points=[[0,0.5],[1,0.5]];portConstraint=eastwest;top=0;left=0;right=0;bottom=0;" vertex="1" parent="2vzEXNzIKZeWlVXa6jJ8-178">
          <mxGeometry y="90" width="180" height="30" as="geometry" />
        </mxCell>
        <mxCell id="2vzEXNzIKZeWlVXa6jJ8-186" value="" style="shape=partialRectangle;connectable=0;fillColor=none;top=0;left=0;bottom=0;right=0;editable=1;overflow=hidden;whiteSpace=wrap;html=1;" vertex="1" parent="2vzEXNzIKZeWlVXa6jJ8-185">
          <mxGeometry width="30" height="30" as="geometry">
            <mxRectangle width="30" height="30" as="alternateBounds" />
          </mxGeometry>
        </mxCell>
        <mxCell id="2vzEXNzIKZeWlVXa6jJ8-187" value="ФИО" style="shape=partialRectangle;connectable=0;fillColor=none;top=0;left=0;bottom=0;right=0;align=left;spacingLeft=6;overflow=hidden;whiteSpace=wrap;html=1;" vertex="1" parent="2vzEXNzIKZeWlVXa6jJ8-185">
          <mxGeometry x="30" width="150" height="30" as="geometry">
            <mxRectangle width="150" height="30" as="alternateBounds" />
          </mxGeometry>
        </mxCell>
        <mxCell id="2vzEXNzIKZeWlVXa6jJ8-188" value="" style="shape=tableRow;horizontal=0;startSize=0;swimlaneHead=0;swimlaneBody=0;fillColor=none;collapsible=0;dropTarget=0;points=[[0,0.5],[1,0.5]];portConstraint=eastwest;top=0;left=0;right=0;bottom=0;" vertex="1" parent="2vzEXNzIKZeWlVXa6jJ8-178">
          <mxGeometry y="120" width="180" height="30" as="geometry" />
        </mxCell>
        <mxCell id="2vzEXNzIKZeWlVXa6jJ8-189" value="" style="shape=partialRectangle;connectable=0;fillColor=none;top=0;left=0;bottom=0;right=0;editable=1;overflow=hidden;whiteSpace=wrap;html=1;" vertex="1" parent="2vzEXNzIKZeWlVXa6jJ8-188">
          <mxGeometry width="30" height="30" as="geometry">
            <mxRectangle width="30" height="30" as="alternateBounds" />
          </mxGeometry>
        </mxCell>
        <mxCell id="2vzEXNzIKZeWlVXa6jJ8-190" value="Местоположение" style="shape=partialRectangle;connectable=0;fillColor=none;top=0;left=0;bottom=0;right=0;align=left;spacingLeft=6;overflow=hidden;whiteSpace=wrap;html=1;" vertex="1" parent="2vzEXNzIKZeWlVXa6jJ8-188">
          <mxGeometry x="30" width="150" height="30" as="geometry">
            <mxRectangle width="150" height="30" as="alternateBounds" />
          </mxGeometry>
        </mxCell>
        <mxCell id="2vzEXNzIKZeWlVXa6jJ8-191" value="Пароль" style="shape=partialRectangle;fillColor=none;align=left;verticalAlign=middle;strokeColor=none;spacingLeft=34;rotatable=0;points=[[0,0.5],[1,0.5]];portConstraint=eastwest;dropTarget=0;shadow=0;fontFamily=Helvetica;fontSize=12;fontColor=default;" vertex="1" parent="1">
          <mxGeometry x="2125" y="815" width="180" height="30" as="geometry" />
        </mxCell>
        <mxCell id="2vzEXNzIKZeWlVXa6jJ8-192" value="" style="shape=partialRectangle;top=0;left=0;bottom=0;fillColor=none;stokeWidth=1;align=left;verticalAlign=middle;spacingLeft=4;spacingRight=4;overflow=hidden;rotatable=0;points=[];portConstraint=eastwest;part=1;shadow=0;fontFamily=Helvetica;fontSize=12;fontColor=default;" vertex="1" connectable="0" parent="2vzEXNzIKZeWlVXa6jJ8-191">
          <mxGeometry width="30" height="30" as="geometry" />
        </mxCell>
        <mxCell id="2vzEXNzIKZeWlVXa6jJ8-193" value="Вакансия" style="shape=table;startSize=30;container=1;collapsible=1;childLayout=tableLayout;fixedRows=1;rowLines=0;fontStyle=1;align=center;resizeLast=1;html=1;" vertex="1" parent="1">
          <mxGeometry x="1430" y="642.5" width="250" height="245" as="geometry" />
        </mxCell>
        <mxCell id="2vzEXNzIKZeWlVXa6jJ8-216" value="" style="shape=tableRow;horizontal=0;startSize=0;swimlaneHead=0;swimlaneBody=0;fillColor=none;collapsible=0;dropTarget=0;points=[[0,0.5],[1,0.5]];portConstraint=eastwest;top=0;left=0;right=0;bottom=1;" vertex="1" parent="2vzEXNzIKZeWlVXa6jJ8-193">
          <mxGeometry y="30" width="250" height="25" as="geometry" />
        </mxCell>
        <mxCell id="2vzEXNzIKZeWlVXa6jJ8-217" value="PK" style="shape=partialRectangle;connectable=0;fillColor=none;top=0;left=0;bottom=0;right=0;fontStyle=1;overflow=hidden;whiteSpace=wrap;html=1;" vertex="1" parent="2vzEXNzIKZeWlVXa6jJ8-216">
          <mxGeometry width="50" height="25" as="geometry">
            <mxRectangle width="50" height="25" as="alternateBounds" />
          </mxGeometry>
        </mxCell>
        <mxCell id="2vzEXNzIKZeWlVXa6jJ8-218" value="Название" style="shape=partialRectangle;connectable=0;fillColor=none;top=0;left=0;bottom=0;right=0;align=left;spacingLeft=6;fontStyle=5;overflow=hidden;whiteSpace=wrap;html=1;" vertex="1" parent="2vzEXNzIKZeWlVXa6jJ8-216">
          <mxGeometry x="50" width="200" height="25" as="geometry">
            <mxRectangle width="200" height="25" as="alternateBounds" />
          </mxGeometry>
        </mxCell>
        <mxCell id="2vzEXNzIKZeWlVXa6jJ8-194" value="" style="shape=tableRow;horizontal=0;startSize=0;swimlaneHead=0;swimlaneBody=0;fillColor=none;collapsible=0;dropTarget=0;points=[[0,0.5],[1,0.5]];portConstraint=eastwest;top=0;left=0;right=0;bottom=1;" vertex="1" parent="2vzEXNzIKZeWlVXa6jJ8-193">
          <mxGeometry y="55" width="250" height="35" as="geometry" />
        </mxCell>
        <mxCell id="2vzEXNzIKZeWlVXa6jJ8-195" value="PK,FK1" style="shape=partialRectangle;connectable=0;fillColor=none;top=0;left=0;bottom=0;right=0;fontStyle=1;overflow=hidden;whiteSpace=wrap;html=1;" vertex="1" parent="2vzEXNzIKZeWlVXa6jJ8-194">
          <mxGeometry width="50" height="35" as="geometry">
            <mxRectangle width="50" height="35" as="alternateBounds" />
          </mxGeometry>
        </mxCell>
        <mxCell id="2vzEXNzIKZeWlVXa6jJ8-196" value="&lt;span style=&quot;text-wrap: nowrap;&quot;&gt;Номер телефона&amp;nbsp;&lt;/span&gt;&lt;span style=&quot;text-wrap: nowrap; background-color: initial;&quot;&gt;работодателя&lt;/span&gt;" style="shape=partialRectangle;connectable=0;fillColor=none;top=0;left=0;bottom=0;right=0;align=left;spacingLeft=6;fontStyle=5;overflow=hidden;whiteSpace=wrap;html=1;" vertex="1" parent="2vzEXNzIKZeWlVXa6jJ8-194">
          <mxGeometry x="50" width="200" height="35" as="geometry">
            <mxRectangle width="200" height="35" as="alternateBounds" />
          </mxGeometry>
        </mxCell>
        <mxCell id="2vzEXNzIKZeWlVXa6jJ8-197" value="Тип занятости" style="shape=partialRectangle;fillColor=none;align=left;verticalAlign=middle;strokeColor=none;spacingLeft=34;rotatable=0;points=[[0,0.5],[1,0.5]];portConstraint=eastwest;dropTarget=0;shadow=0;fontFamily=Helvetica;fontSize=12;fontColor=default;" vertex="1" parent="1">
          <mxGeometry x="1450" y="765" width="180" height="30" as="geometry" />
        </mxCell>
        <mxCell id="2vzEXNzIKZeWlVXa6jJ8-198" value="" style="shape=partialRectangle;top=0;left=0;bottom=0;fillColor=none;stokeWidth=1;align=left;verticalAlign=middle;spacingLeft=4;spacingRight=4;overflow=hidden;rotatable=0;points=[];portConstraint=eastwest;part=1;shadow=0;fontFamily=Helvetica;fontSize=12;fontColor=default;" vertex="1" connectable="0" parent="2vzEXNzIKZeWlVXa6jJ8-197">
          <mxGeometry width="30" height="30" as="geometry" />
        </mxCell>
        <mxCell id="2vzEXNzIKZeWlVXa6jJ8-199" value="Образование" style="shape=partialRectangle;fillColor=none;align=left;verticalAlign=middle;strokeColor=none;spacingLeft=34;rotatable=0;points=[[0,0.5],[1,0.5]];portConstraint=eastwest;dropTarget=0;shadow=0;fontFamily=Helvetica;fontSize=12;fontColor=default;" vertex="1" parent="1">
          <mxGeometry x="1450" y="735" width="180" height="30" as="geometry" />
        </mxCell>
        <mxCell id="2vzEXNzIKZeWlVXa6jJ8-200" value="" style="shape=partialRectangle;top=0;left=0;bottom=0;fillColor=none;stokeWidth=1;align=left;verticalAlign=middle;spacingLeft=4;spacingRight=4;overflow=hidden;rotatable=0;points=[];portConstraint=eastwest;part=1;shadow=0;fontFamily=Helvetica;fontSize=12;fontColor=default;" vertex="1" connectable="0" parent="2vzEXNzIKZeWlVXa6jJ8-199">
          <mxGeometry width="30" height="30" as="geometry" />
        </mxCell>
        <mxCell id="2vzEXNzIKZeWlVXa6jJ8-201" value="Описание" style="shape=partialRectangle;fillColor=none;align=left;verticalAlign=middle;strokeColor=none;spacingLeft=34;rotatable=0;points=[[0,0.5],[1,0.5]];portConstraint=eastwest;dropTarget=0;shadow=0;fontFamily=Helvetica;fontSize=12;fontColor=default;" vertex="1" parent="1">
          <mxGeometry x="1450" y="825" width="180" height="30" as="geometry" />
        </mxCell>
        <mxCell id="2vzEXNzIKZeWlVXa6jJ8-202" value="" style="shape=partialRectangle;top=0;left=0;bottom=0;fillColor=none;stokeWidth=1;align=left;verticalAlign=middle;spacingLeft=4;spacingRight=4;overflow=hidden;rotatable=0;points=[];portConstraint=eastwest;part=1;shadow=0;fontFamily=Helvetica;fontSize=12;fontColor=default;" vertex="1" connectable="0" parent="2vzEXNzIKZeWlVXa6jJ8-201">
          <mxGeometry width="30" height="30" as="geometry" />
        </mxCell>
        <mxCell id="2vzEXNzIKZeWlVXa6jJ8-203" value="Опыт работы" style="shape=partialRectangle;fillColor=none;align=left;verticalAlign=middle;strokeColor=none;spacingLeft=34;rotatable=0;points=[[0,0.5],[1,0.5]];portConstraint=eastwest;dropTarget=0;shadow=0;fontFamily=Helvetica;fontSize=12;fontColor=default;" vertex="1" parent="1">
          <mxGeometry x="1450" y="795" width="180" height="30" as="geometry" />
        </mxCell>
        <mxCell id="2vzEXNzIKZeWlVXa6jJ8-204" value="" style="shape=partialRectangle;top=0;left=0;bottom=0;fillColor=none;stokeWidth=1;align=left;verticalAlign=middle;spacingLeft=4;spacingRight=4;overflow=hidden;rotatable=0;points=[];portConstraint=eastwest;part=1;shadow=0;fontFamily=Helvetica;fontSize=12;fontColor=default;" vertex="1" connectable="0" parent="2vzEXNzIKZeWlVXa6jJ8-203">
          <mxGeometry width="30" height="30" as="geometry" />
        </mxCell>
        <mxCell id="2vzEXNzIKZeWlVXa6jJ8-205" value="Дата публикации" style="shape=partialRectangle;fillColor=none;align=left;verticalAlign=middle;strokeColor=none;spacingLeft=34;rotatable=0;points=[[0,0.5],[1,0.5]];portConstraint=eastwest;dropTarget=0;shadow=0;fontFamily=Helvetica;fontSize=12;fontColor=default;" vertex="1" parent="1">
          <mxGeometry x="1450" y="855" width="180" height="30" as="geometry" />
        </mxCell>
        <mxCell id="2vzEXNzIKZeWlVXa6jJ8-206" value="" style="shape=partialRectangle;top=0;left=0;bottom=0;fillColor=none;stokeWidth=1;align=left;verticalAlign=middle;spacingLeft=4;spacingRight=4;overflow=hidden;rotatable=0;points=[];portConstraint=eastwest;part=1;shadow=0;fontFamily=Helvetica;fontSize=12;fontColor=default;" vertex="1" connectable="0" parent="2vzEXNzIKZeWlVXa6jJ8-205">
          <mxGeometry width="30" height="30" as="geometry" />
        </mxCell>
        <mxCell id="2vzEXNzIKZeWlVXa6jJ8-220" value="Резюме" style="shape=table;startSize=30;container=1;collapsible=1;childLayout=tableLayout;fixedRows=1;rowLines=0;fontStyle=1;align=center;resizeLast=1;html=1;" vertex="1" parent="1">
          <mxGeometry x="2060" y="-10" width="250" height="235" as="geometry" />
        </mxCell>
        <mxCell id="2vzEXNzIKZeWlVXa6jJ8-221" value="" style="shape=tableRow;horizontal=0;startSize=0;swimlaneHead=0;swimlaneBody=0;fillColor=none;collapsible=0;dropTarget=0;points=[[0,0.5],[1,0.5]];portConstraint=eastwest;top=0;left=0;right=0;bottom=1;" vertex="1" parent="2vzEXNzIKZeWlVXa6jJ8-220">
          <mxGeometry y="30" width="250" height="25" as="geometry" />
        </mxCell>
        <mxCell id="2vzEXNzIKZeWlVXa6jJ8-222" value="PK" style="shape=partialRectangle;connectable=0;fillColor=none;top=0;left=0;bottom=0;right=0;fontStyle=1;overflow=hidden;whiteSpace=wrap;html=1;" vertex="1" parent="2vzEXNzIKZeWlVXa6jJ8-221">
          <mxGeometry width="50" height="25" as="geometry">
            <mxRectangle width="50" height="25" as="alternateBounds" />
          </mxGeometry>
        </mxCell>
        <mxCell id="2vzEXNzIKZeWlVXa6jJ8-223" value="Название" style="shape=partialRectangle;connectable=0;fillColor=none;top=0;left=0;bottom=0;right=0;align=left;spacingLeft=6;fontStyle=5;overflow=hidden;whiteSpace=wrap;html=1;" vertex="1" parent="2vzEXNzIKZeWlVXa6jJ8-221">
          <mxGeometry x="50" width="200" height="25" as="geometry">
            <mxRectangle width="200" height="25" as="alternateBounds" />
          </mxGeometry>
        </mxCell>
        <mxCell id="2vzEXNzIKZeWlVXa6jJ8-224" value="" style="shape=tableRow;horizontal=0;startSize=0;swimlaneHead=0;swimlaneBody=0;fillColor=none;collapsible=0;dropTarget=0;points=[[0,0.5],[1,0.5]];portConstraint=eastwest;top=0;left=0;right=0;bottom=1;" vertex="1" parent="2vzEXNzIKZeWlVXa6jJ8-220">
          <mxGeometry y="55" width="250" height="25" as="geometry" />
        </mxCell>
        <mxCell id="2vzEXNzIKZeWlVXa6jJ8-225" value="PK,FK1" style="shape=partialRectangle;connectable=0;fillColor=none;top=0;left=0;bottom=0;right=0;fontStyle=1;overflow=hidden;whiteSpace=wrap;html=1;" vertex="1" parent="2vzEXNzIKZeWlVXa6jJ8-224">
          <mxGeometry width="50" height="25" as="geometry">
            <mxRectangle width="50" height="25" as="alternateBounds" />
          </mxGeometry>
        </mxCell>
        <mxCell id="2vzEXNzIKZeWlVXa6jJ8-226" value="&lt;span style=&quot;text-wrap: nowrap;&quot;&gt;Номер телефона соискателя&lt;/span&gt;" style="shape=partialRectangle;connectable=0;fillColor=none;top=0;left=0;bottom=0;right=0;align=left;spacingLeft=6;fontStyle=5;overflow=hidden;whiteSpace=wrap;html=1;" vertex="1" parent="2vzEXNzIKZeWlVXa6jJ8-224">
          <mxGeometry x="50" width="200" height="25" as="geometry">
            <mxRectangle width="200" height="25" as="alternateBounds" />
          </mxGeometry>
        </mxCell>
        <mxCell id="2vzEXNzIKZeWlVXa6jJ8-227" value="Тип занятости" style="shape=partialRectangle;fillColor=none;align=left;verticalAlign=middle;strokeColor=none;spacingLeft=34;rotatable=0;points=[[0,0.5],[1,0.5]];portConstraint=eastwest;dropTarget=0;shadow=0;fontFamily=Helvetica;fontSize=12;fontColor=default;" vertex="1" parent="1">
          <mxGeometry x="2080" y="100" width="180" height="30" as="geometry" />
        </mxCell>
        <mxCell id="2vzEXNzIKZeWlVXa6jJ8-228" value="" style="shape=partialRectangle;top=0;left=0;bottom=0;fillColor=none;stokeWidth=1;align=left;verticalAlign=middle;spacingLeft=4;spacingRight=4;overflow=hidden;rotatable=0;points=[];portConstraint=eastwest;part=1;shadow=0;fontFamily=Helvetica;fontSize=12;fontColor=default;" vertex="1" connectable="0" parent="2vzEXNzIKZeWlVXa6jJ8-227">
          <mxGeometry width="30" height="30" as="geometry" />
        </mxCell>
        <mxCell id="2vzEXNzIKZeWlVXa6jJ8-229" value="Образование" style="shape=partialRectangle;fillColor=none;align=left;verticalAlign=middle;strokeColor=none;spacingLeft=34;rotatable=0;points=[[0,0.5],[1,0.5]];portConstraint=eastwest;dropTarget=0;shadow=0;fontFamily=Helvetica;fontSize=12;fontColor=default;" vertex="1" parent="1">
          <mxGeometry x="2080" y="70" width="180" height="30" as="geometry" />
        </mxCell>
        <mxCell id="2vzEXNzIKZeWlVXa6jJ8-230" value="" style="shape=partialRectangle;top=0;left=0;bottom=0;fillColor=none;stokeWidth=1;align=left;verticalAlign=middle;spacingLeft=4;spacingRight=4;overflow=hidden;rotatable=0;points=[];portConstraint=eastwest;part=1;shadow=0;fontFamily=Helvetica;fontSize=12;fontColor=default;" vertex="1" connectable="0" parent="2vzEXNzIKZeWlVXa6jJ8-229">
          <mxGeometry width="30" height="30" as="geometry" />
        </mxCell>
        <mxCell id="2vzEXNzIKZeWlVXa6jJ8-231" value="Описание" style="shape=partialRectangle;fillColor=none;align=left;verticalAlign=middle;strokeColor=none;spacingLeft=34;rotatable=0;points=[[0,0.5],[1,0.5]];portConstraint=eastwest;dropTarget=0;shadow=0;fontFamily=Helvetica;fontSize=12;fontColor=default;" vertex="1" parent="1">
          <mxGeometry x="2080" y="160" width="180" height="30" as="geometry" />
        </mxCell>
        <mxCell id="2vzEXNzIKZeWlVXa6jJ8-232" value="" style="shape=partialRectangle;top=0;left=0;bottom=0;fillColor=none;stokeWidth=1;align=left;verticalAlign=middle;spacingLeft=4;spacingRight=4;overflow=hidden;rotatable=0;points=[];portConstraint=eastwest;part=1;shadow=0;fontFamily=Helvetica;fontSize=12;fontColor=default;" vertex="1" connectable="0" parent="2vzEXNzIKZeWlVXa6jJ8-231">
          <mxGeometry width="30" height="30" as="geometry" />
        </mxCell>
        <mxCell id="2vzEXNzIKZeWlVXa6jJ8-233" value="Опыт работы" style="shape=partialRectangle;fillColor=none;align=left;verticalAlign=middle;strokeColor=none;spacingLeft=34;rotatable=0;points=[[0,0.5],[1,0.5]];portConstraint=eastwest;dropTarget=0;shadow=0;fontFamily=Helvetica;fontSize=12;fontColor=default;" vertex="1" parent="1">
          <mxGeometry x="2080" y="130" width="180" height="30" as="geometry" />
        </mxCell>
        <mxCell id="2vzEXNzIKZeWlVXa6jJ8-234" value="" style="shape=partialRectangle;top=0;left=0;bottom=0;fillColor=none;stokeWidth=1;align=left;verticalAlign=middle;spacingLeft=4;spacingRight=4;overflow=hidden;rotatable=0;points=[];portConstraint=eastwest;part=1;shadow=0;fontFamily=Helvetica;fontSize=12;fontColor=default;" vertex="1" connectable="0" parent="2vzEXNzIKZeWlVXa6jJ8-233">
          <mxGeometry width="30" height="30" as="geometry" />
        </mxCell>
        <mxCell id="2vzEXNzIKZeWlVXa6jJ8-235" value="Дата публикации" style="shape=partialRectangle;fillColor=none;align=left;verticalAlign=middle;strokeColor=none;spacingLeft=34;rotatable=0;points=[[0,0.5],[1,0.5]];portConstraint=eastwest;dropTarget=0;shadow=0;fontFamily=Helvetica;fontSize=12;fontColor=default;" vertex="1" parent="1">
          <mxGeometry x="2080" y="190" width="180" height="30" as="geometry" />
        </mxCell>
        <mxCell id="2vzEXNzIKZeWlVXa6jJ8-236" value="" style="shape=partialRectangle;top=0;left=0;bottom=0;fillColor=none;stokeWidth=1;align=left;verticalAlign=middle;spacingLeft=4;spacingRight=4;overflow=hidden;rotatable=0;points=[];portConstraint=eastwest;part=1;shadow=0;fontFamily=Helvetica;fontSize=12;fontColor=default;" vertex="1" connectable="0" parent="2vzEXNzIKZeWlVXa6jJ8-235">
          <mxGeometry width="30" height="30" as="geometry" />
        </mxCell>
        <mxCell id="2vzEXNzIKZeWlVXa6jJ8-238" value="Отклик на вакансию" style="shape=table;startSize=30;container=1;collapsible=1;childLayout=tableLayout;fixedRows=1;rowLines=0;fontStyle=1;align=center;resizeLast=1;html=1;movable=1;resizable=1;rotatable=1;deletable=1;editable=1;locked=0;connectable=1;" vertex="1" parent="1">
          <mxGeometry x="1440" y="247.5" width="250" height="185" as="geometry" />
        </mxCell>
        <mxCell id="2vzEXNzIKZeWlVXa6jJ8-251" value="" style="shape=tableRow;horizontal=0;startSize=0;swimlaneHead=0;swimlaneBody=0;fillColor=none;collapsible=0;dropTarget=0;points=[[0,0.5],[1,0.5]];portConstraint=eastwest;top=0;left=0;right=0;bottom=1;" vertex="1" parent="2vzEXNzIKZeWlVXa6jJ8-238">
          <mxGeometry y="30" width="250" height="30" as="geometry" />
        </mxCell>
        <mxCell id="2vzEXNzIKZeWlVXa6jJ8-252" value="PK,FK1" style="shape=partialRectangle;connectable=0;fillColor=none;top=0;left=0;bottom=0;right=0;fontStyle=1;overflow=hidden;whiteSpace=wrap;html=1;" vertex="1" parent="2vzEXNzIKZeWlVXa6jJ8-251">
          <mxGeometry width="50" height="30" as="geometry">
            <mxRectangle width="50" height="30" as="alternateBounds" />
          </mxGeometry>
        </mxCell>
        <mxCell id="2vzEXNzIKZeWlVXa6jJ8-253" value="Номер телефона&amp;nbsp; VARCHAR(30)&lt;div&gt;соискателя&lt;/div&gt;" style="shape=partialRectangle;connectable=0;fillColor=none;top=0;left=0;bottom=0;right=0;align=left;spacingLeft=6;fontStyle=5;overflow=hidden;whiteSpace=wrap;html=1;" vertex="1" parent="2vzEXNzIKZeWlVXa6jJ8-251">
          <mxGeometry x="50" width="200" height="30" as="geometry">
            <mxRectangle width="200" height="30" as="alternateBounds" />
          </mxGeometry>
        </mxCell>
        <mxCell id="2vzEXNzIKZeWlVXa6jJ8-239" value="" style="shape=tableRow;horizontal=0;startSize=0;swimlaneHead=0;swimlaneBody=0;fillColor=none;collapsible=0;dropTarget=0;points=[[0,0.5],[1,0.5]];portConstraint=eastwest;top=0;left=0;right=0;bottom=1;" vertex="1" parent="2vzEXNzIKZeWlVXa6jJ8-238">
          <mxGeometry y="60" width="250" height="30" as="geometry" />
        </mxCell>
        <mxCell id="2vzEXNzIKZeWlVXa6jJ8-240" value="PK,FK2" style="shape=partialRectangle;connectable=0;fillColor=none;top=0;left=0;bottom=0;right=0;fontStyle=1;overflow=hidden;whiteSpace=wrap;html=1;" vertex="1" parent="2vzEXNzIKZeWlVXa6jJ8-239">
          <mxGeometry width="50" height="30" as="geometry">
            <mxRectangle width="50" height="30" as="alternateBounds" />
          </mxGeometry>
        </mxCell>
        <mxCell id="2vzEXNzIKZeWlVXa6jJ8-241" value="Название вакансии" style="shape=partialRectangle;connectable=0;fillColor=none;top=0;left=0;bottom=0;right=0;align=left;spacingLeft=6;fontStyle=5;overflow=hidden;whiteSpace=wrap;html=1;" vertex="1" parent="2vzEXNzIKZeWlVXa6jJ8-239">
          <mxGeometry x="50" width="200" height="30" as="geometry">
            <mxRectangle width="200" height="30" as="alternateBounds" />
          </mxGeometry>
        </mxCell>
        <mxCell id="2vzEXNzIKZeWlVXa6jJ8-254" value="" style="shape=tableRow;horizontal=0;startSize=0;swimlaneHead=0;swimlaneBody=0;fillColor=none;collapsible=0;dropTarget=0;points=[[0,0.5],[1,0.5]];portConstraint=eastwest;top=0;left=0;right=0;bottom=1;" vertex="1" parent="2vzEXNzIKZeWlVXa6jJ8-238">
          <mxGeometry y="90" width="250" height="30" as="geometry" />
        </mxCell>
        <mxCell id="2vzEXNzIKZeWlVXa6jJ8-255" value="PK,FK2" style="shape=partialRectangle;connectable=0;fillColor=none;top=0;left=0;bottom=0;right=0;fontStyle=1;overflow=hidden;whiteSpace=wrap;html=1;" vertex="1" parent="2vzEXNzIKZeWlVXa6jJ8-254">
          <mxGeometry width="50" height="30" as="geometry">
            <mxRectangle width="50" height="30" as="alternateBounds" />
          </mxGeometry>
        </mxCell>
        <mxCell id="2vzEXNzIKZeWlVXa6jJ8-256" value="Номер телефона работодателя" style="shape=partialRectangle;connectable=0;fillColor=none;top=0;left=0;bottom=0;right=0;align=left;spacingLeft=6;fontStyle=5;overflow=hidden;whiteSpace=wrap;html=1;" vertex="1" parent="2vzEXNzIKZeWlVXa6jJ8-254">
          <mxGeometry x="50" width="200" height="30" as="geometry">
            <mxRectangle width="200" height="30" as="alternateBounds" />
          </mxGeometry>
        </mxCell>
        <mxCell id="2vzEXNzIKZeWlVXa6jJ8-242" value="" style="shape=tableRow;horizontal=0;startSize=0;swimlaneHead=0;swimlaneBody=0;fillColor=none;collapsible=0;dropTarget=0;points=[[0,0.5],[1,0.5]];portConstraint=eastwest;top=0;left=0;right=0;bottom=0;" vertex="1" parent="2vzEXNzIKZeWlVXa6jJ8-238">
          <mxGeometry y="120" width="250" height="30" as="geometry" />
        </mxCell>
        <mxCell id="2vzEXNzIKZeWlVXa6jJ8-243" value="" style="shape=partialRectangle;connectable=0;fillColor=none;top=0;left=0;bottom=0;right=0;editable=1;overflow=hidden;whiteSpace=wrap;html=1;" vertex="1" parent="2vzEXNzIKZeWlVXa6jJ8-242">
          <mxGeometry width="50" height="30" as="geometry">
            <mxRectangle width="50" height="30" as="alternateBounds" />
          </mxGeometry>
        </mxCell>
        <mxCell id="2vzEXNzIKZeWlVXa6jJ8-244" value="Состояние" style="shape=partialRectangle;connectable=0;fillColor=none;top=0;left=0;bottom=0;right=0;align=left;spacingLeft=6;overflow=hidden;whiteSpace=wrap;html=1;" vertex="1" parent="2vzEXNzIKZeWlVXa6jJ8-242">
          <mxGeometry x="50" width="200" height="30" as="geometry">
            <mxRectangle width="200" height="30" as="alternateBounds" />
          </mxGeometry>
        </mxCell>
        <mxCell id="2vzEXNzIKZeWlVXa6jJ8-245" value="" style="shape=tableRow;horizontal=0;startSize=0;swimlaneHead=0;swimlaneBody=0;fillColor=none;collapsible=0;dropTarget=0;points=[[0,0.5],[1,0.5]];portConstraint=eastwest;top=0;left=0;right=0;bottom=0;" vertex="1" parent="2vzEXNzIKZeWlVXa6jJ8-238">
          <mxGeometry y="150" width="250" height="30" as="geometry" />
        </mxCell>
        <mxCell id="2vzEXNzIKZeWlVXa6jJ8-246" value="" style="shape=partialRectangle;connectable=0;fillColor=none;top=0;left=0;bottom=0;right=0;editable=1;overflow=hidden;whiteSpace=wrap;html=1;" vertex="1" parent="2vzEXNzIKZeWlVXa6jJ8-245">
          <mxGeometry width="50" height="30" as="geometry">
            <mxRectangle width="50" height="30" as="alternateBounds" />
          </mxGeometry>
        </mxCell>
        <mxCell id="2vzEXNzIKZeWlVXa6jJ8-247" value="Время отклика" style="shape=partialRectangle;connectable=0;fillColor=none;top=0;left=0;bottom=0;right=0;align=left;spacingLeft=6;overflow=hidden;whiteSpace=wrap;html=1;" vertex="1" parent="2vzEXNzIKZeWlVXa6jJ8-245">
          <mxGeometry x="50" width="200" height="30" as="geometry">
            <mxRectangle width="200" height="30" as="alternateBounds" />
          </mxGeometry>
        </mxCell>
        <mxCell id="2vzEXNzIKZeWlVXa6jJ8-258" style="edgeStyle=orthogonalEdgeStyle;rounded=0;orthogonalLoop=1;jettySize=auto;html=1;entryX=0;entryY=0.5;entryDx=0;entryDy=0;" edge="1" parent="1" source="2vzEXNzIKZeWlVXa6jJ8-194" target="2vzEXNzIKZeWlVXa6jJ8-179">
          <mxGeometry relative="1" as="geometry" />
        </mxCell>
        <mxCell id="2vzEXNzIKZeWlVXa6jJ8-259" style="edgeStyle=orthogonalEdgeStyle;rounded=0;orthogonalLoop=1;jettySize=auto;html=1;entryX=0;entryY=0.5;entryDx=0;entryDy=0;" edge="1" parent="1" source="2vzEXNzIKZeWlVXa6jJ8-251" target="2vzEXNzIKZeWlVXa6jJ8-162">
          <mxGeometry relative="1" as="geometry">
            <Array as="points">
              <mxPoint x="1430" y="293" />
              <mxPoint x="1430" y="50" />
            </Array>
          </mxGeometry>
        </mxCell>
        <mxCell id="2vzEXNzIKZeWlVXa6jJ8-262" value="Отклик на резюме" style="shape=table;startSize=30;container=1;collapsible=1;childLayout=tableLayout;fixedRows=1;rowLines=0;fontStyle=1;align=center;resizeLast=1;html=1;movable=1;resizable=1;rotatable=1;deletable=1;editable=1;locked=0;connectable=1;" vertex="1" parent="1">
          <mxGeometry x="2110" y="257.5" width="180" height="185" as="geometry" />
        </mxCell>
        <mxCell id="2vzEXNzIKZeWlVXa6jJ8-263" value="" style="shape=tableRow;horizontal=0;startSize=0;swimlaneHead=0;swimlaneBody=0;fillColor=none;collapsible=0;dropTarget=0;points=[[0,0.5],[1,0.5]];portConstraint=eastwest;top=0;left=0;right=0;bottom=1;" vertex="1" parent="2vzEXNzIKZeWlVXa6jJ8-262">
          <mxGeometry y="30" width="180" height="30" as="geometry" />
        </mxCell>
        <mxCell id="2vzEXNzIKZeWlVXa6jJ8-264" value="PK,FK1" style="shape=partialRectangle;connectable=0;fillColor=none;top=0;left=0;bottom=0;right=0;fontStyle=1;overflow=hidden;whiteSpace=wrap;html=1;" vertex="1" parent="2vzEXNzIKZeWlVXa6jJ8-263">
          <mxGeometry width="50" height="30" as="geometry">
            <mxRectangle width="50" height="30" as="alternateBounds" />
          </mxGeometry>
        </mxCell>
        <mxCell id="2vzEXNzIKZeWlVXa6jJ8-265" value="Номер телефона соискателя" style="shape=partialRectangle;connectable=0;fillColor=none;top=0;left=0;bottom=0;right=0;align=left;spacingLeft=6;fontStyle=5;overflow=hidden;whiteSpace=wrap;html=1;" vertex="1" parent="2vzEXNzIKZeWlVXa6jJ8-263">
          <mxGeometry x="50" width="130" height="30" as="geometry">
            <mxRectangle width="130" height="30" as="alternateBounds" />
          </mxGeometry>
        </mxCell>
        <mxCell id="2vzEXNzIKZeWlVXa6jJ8-266" value="" style="shape=tableRow;horizontal=0;startSize=0;swimlaneHead=0;swimlaneBody=0;fillColor=none;collapsible=0;dropTarget=0;points=[[0,0.5],[1,0.5]];portConstraint=eastwest;top=0;left=0;right=0;bottom=1;" vertex="1" parent="2vzEXNzIKZeWlVXa6jJ8-262">
          <mxGeometry y="60" width="180" height="30" as="geometry" />
        </mxCell>
        <mxCell id="2vzEXNzIKZeWlVXa6jJ8-267" value="PK,FK1" style="shape=partialRectangle;connectable=0;fillColor=none;top=0;left=0;bottom=0;right=0;fontStyle=1;overflow=hidden;whiteSpace=wrap;html=1;" vertex="1" parent="2vzEXNzIKZeWlVXa6jJ8-266">
          <mxGeometry width="50" height="30" as="geometry">
            <mxRectangle width="50" height="30" as="alternateBounds" />
          </mxGeometry>
        </mxCell>
        <mxCell id="2vzEXNzIKZeWlVXa6jJ8-268" value="Название резюме" style="shape=partialRectangle;connectable=0;fillColor=none;top=0;left=0;bottom=0;right=0;align=left;spacingLeft=6;fontStyle=5;overflow=hidden;whiteSpace=wrap;html=1;" vertex="1" parent="2vzEXNzIKZeWlVXa6jJ8-266">
          <mxGeometry x="50" width="130" height="30" as="geometry">
            <mxRectangle width="130" height="30" as="alternateBounds" />
          </mxGeometry>
        </mxCell>
        <mxCell id="2vzEXNzIKZeWlVXa6jJ8-269" value="" style="shape=tableRow;horizontal=0;startSize=0;swimlaneHead=0;swimlaneBody=0;fillColor=none;collapsible=0;dropTarget=0;points=[[0,0.5],[1,0.5]];portConstraint=eastwest;top=0;left=0;right=0;bottom=1;" vertex="1" parent="2vzEXNzIKZeWlVXa6jJ8-262">
          <mxGeometry y="90" width="180" height="30" as="geometry" />
        </mxCell>
        <mxCell id="2vzEXNzIKZeWlVXa6jJ8-270" value="PK,FK2" style="shape=partialRectangle;connectable=0;fillColor=none;top=0;left=0;bottom=0;right=0;fontStyle=1;overflow=hidden;whiteSpace=wrap;html=1;" vertex="1" parent="2vzEXNzIKZeWlVXa6jJ8-269">
          <mxGeometry width="50" height="30" as="geometry">
            <mxRectangle width="50" height="30" as="alternateBounds" />
          </mxGeometry>
        </mxCell>
        <mxCell id="2vzEXNzIKZeWlVXa6jJ8-271" value="Номер телефона работодателя" style="shape=partialRectangle;connectable=0;fillColor=none;top=0;left=0;bottom=0;right=0;align=left;spacingLeft=6;fontStyle=5;overflow=hidden;whiteSpace=wrap;html=1;" vertex="1" parent="2vzEXNzIKZeWlVXa6jJ8-269">
          <mxGeometry x="50" width="130" height="30" as="geometry">
            <mxRectangle width="130" height="30" as="alternateBounds" />
          </mxGeometry>
        </mxCell>
        <mxCell id="2vzEXNzIKZeWlVXa6jJ8-272" value="" style="shape=tableRow;horizontal=0;startSize=0;swimlaneHead=0;swimlaneBody=0;fillColor=none;collapsible=0;dropTarget=0;points=[[0,0.5],[1,0.5]];portConstraint=eastwest;top=0;left=0;right=0;bottom=0;" vertex="1" parent="2vzEXNzIKZeWlVXa6jJ8-262">
          <mxGeometry y="120" width="180" height="30" as="geometry" />
        </mxCell>
        <mxCell id="2vzEXNzIKZeWlVXa6jJ8-273" value="" style="shape=partialRectangle;connectable=0;fillColor=none;top=0;left=0;bottom=0;right=0;editable=1;overflow=hidden;whiteSpace=wrap;html=1;" vertex="1" parent="2vzEXNzIKZeWlVXa6jJ8-272">
          <mxGeometry width="50" height="30" as="geometry">
            <mxRectangle width="50" height="30" as="alternateBounds" />
          </mxGeometry>
        </mxCell>
        <mxCell id="2vzEXNzIKZeWlVXa6jJ8-274" value="Состояние" style="shape=partialRectangle;connectable=0;fillColor=none;top=0;left=0;bottom=0;right=0;align=left;spacingLeft=6;overflow=hidden;whiteSpace=wrap;html=1;" vertex="1" parent="2vzEXNzIKZeWlVXa6jJ8-272">
          <mxGeometry x="50" width="130" height="30" as="geometry">
            <mxRectangle width="130" height="30" as="alternateBounds" />
          </mxGeometry>
        </mxCell>
        <mxCell id="2vzEXNzIKZeWlVXa6jJ8-275" value="" style="shape=tableRow;horizontal=0;startSize=0;swimlaneHead=0;swimlaneBody=0;fillColor=none;collapsible=0;dropTarget=0;points=[[0,0.5],[1,0.5]];portConstraint=eastwest;top=0;left=0;right=0;bottom=0;" vertex="1" parent="2vzEXNzIKZeWlVXa6jJ8-262">
          <mxGeometry y="150" width="180" height="30" as="geometry" />
        </mxCell>
        <mxCell id="2vzEXNzIKZeWlVXa6jJ8-276" value="" style="shape=partialRectangle;connectable=0;fillColor=none;top=0;left=0;bottom=0;right=0;editable=1;overflow=hidden;whiteSpace=wrap;html=1;" vertex="1" parent="2vzEXNzIKZeWlVXa6jJ8-275">
          <mxGeometry width="50" height="30" as="geometry">
            <mxRectangle width="50" height="30" as="alternateBounds" />
          </mxGeometry>
        </mxCell>
        <mxCell id="2vzEXNzIKZeWlVXa6jJ8-277" value="Время отклика" style="shape=partialRectangle;connectable=0;fillColor=none;top=0;left=0;bottom=0;right=0;align=left;spacingLeft=6;overflow=hidden;whiteSpace=wrap;html=1;" vertex="1" parent="2vzEXNzIKZeWlVXa6jJ8-275">
          <mxGeometry x="50" width="130" height="30" as="geometry">
            <mxRectangle width="130" height="30" as="alternateBounds" />
          </mxGeometry>
        </mxCell>
        <mxCell id="2vzEXNzIKZeWlVXa6jJ8-278" style="edgeStyle=orthogonalEdgeStyle;rounded=0;orthogonalLoop=1;jettySize=auto;html=1;entryX=1;entryY=0.5;entryDx=0;entryDy=0;" edge="1" parent="1" source="2vzEXNzIKZeWlVXa6jJ8-263" target="2vzEXNzIKZeWlVXa6jJ8-224">
          <mxGeometry relative="1" as="geometry">
            <Array as="points">
              <mxPoint x="2330" y="302" />
              <mxPoint x="2330" y="58" />
            </Array>
          </mxGeometry>
        </mxCell>
        <mxCell id="2vzEXNzIKZeWlVXa6jJ8-279" style="edgeStyle=orthogonalEdgeStyle;rounded=0;orthogonalLoop=1;jettySize=auto;html=1;entryX=1;entryY=0.5;entryDx=0;entryDy=0;" edge="1" parent="1" source="2vzEXNzIKZeWlVXa6jJ8-266" target="2vzEXNzIKZeWlVXa6jJ8-221">
          <mxGeometry relative="1" as="geometry">
            <Array as="points">
              <mxPoint x="2350" y="332" />
              <mxPoint x="2350" y="32" />
            </Array>
          </mxGeometry>
        </mxCell>
        <mxCell id="2vzEXNzIKZeWlVXa6jJ8-280" style="edgeStyle=orthogonalEdgeStyle;rounded=0;orthogonalLoop=1;jettySize=auto;html=1;entryX=1;entryY=0.5;entryDx=0;entryDy=0;" edge="1" parent="1" source="2vzEXNzIKZeWlVXa6jJ8-269" target="2vzEXNzIKZeWlVXa6jJ8-179">
          <mxGeometry relative="1" as="geometry" />
        </mxCell>
        <mxCell id="2vzEXNzIKZeWlVXa6jJ8-281" value="Сообщение работодателю" style="shape=table;startSize=30;container=1;collapsible=1;childLayout=tableLayout;fixedRows=1;rowLines=0;fontStyle=1;align=center;resizeLast=1;html=1;" vertex="1" parent="1">
          <mxGeometry x="1770" y="77.5" width="220" height="205" as="geometry" />
        </mxCell>
        <mxCell id="2vzEXNzIKZeWlVXa6jJ8-282" value="" style="shape=tableRow;horizontal=0;startSize=0;swimlaneHead=0;swimlaneBody=0;fillColor=none;collapsible=0;dropTarget=0;points=[[0,0.5],[1,0.5]];portConstraint=eastwest;top=0;left=0;right=0;bottom=1;" vertex="1" parent="2vzEXNzIKZeWlVXa6jJ8-281">
          <mxGeometry y="30" width="220" height="30" as="geometry" />
        </mxCell>
        <mxCell id="2vzEXNzIKZeWlVXa6jJ8-283" value="PK" style="shape=partialRectangle;connectable=0;fillColor=none;top=0;left=0;bottom=0;right=0;fontStyle=1;overflow=hidden;whiteSpace=wrap;html=1;" vertex="1" parent="2vzEXNzIKZeWlVXa6jJ8-282">
          <mxGeometry width="30" height="30" as="geometry">
            <mxRectangle width="30" height="30" as="alternateBounds" />
          </mxGeometry>
        </mxCell>
        <mxCell id="2vzEXNzIKZeWlVXa6jJ8-284" value="id_сообщения" style="shape=partialRectangle;connectable=0;fillColor=none;top=0;left=0;bottom=0;right=0;align=left;spacingLeft=6;fontStyle=5;overflow=hidden;whiteSpace=wrap;html=1;" vertex="1" parent="2vzEXNzIKZeWlVXa6jJ8-282">
          <mxGeometry x="30" width="190" height="30" as="geometry">
            <mxRectangle width="190" height="30" as="alternateBounds" />
          </mxGeometry>
        </mxCell>
        <mxCell id="2vzEXNzIKZeWlVXa6jJ8-294" style="edgeStyle=orthogonalEdgeStyle;rounded=0;orthogonalLoop=1;jettySize=auto;html=1;entryX=1;entryY=0.5;entryDx=0;entryDy=0;" edge="1" parent="1" source="2vzEXNzIKZeWlVXa6jJ8-289" target="2vzEXNzIKZeWlVXa6jJ8-162">
          <mxGeometry relative="1" as="geometry" />
        </mxCell>
        <mxCell id="2vzEXNzIKZeWlVXa6jJ8-289" value="Номер телефона соискателя" style="shape=partialRectangle;fillColor=none;align=left;verticalAlign=middle;strokeColor=none;spacingLeft=34;rotatable=0;points=[[0,0.5],[1,0.5]];portConstraint=eastwest;dropTarget=0;shadow=0;fontFamily=Helvetica;fontSize=12;fontColor=default;" vertex="1" parent="1">
          <mxGeometry x="1770" y="137.5" width="220" height="30" as="geometry" />
        </mxCell>
        <mxCell id="2vzEXNzIKZeWlVXa6jJ8-290" value="FK1" style="shape=partialRectangle;top=0;left=0;bottom=0;fillColor=none;stokeWidth=1;align=left;verticalAlign=middle;spacingLeft=4;spacingRight=4;overflow=hidden;rotatable=0;points=[];portConstraint=eastwest;part=1;shadow=0;fontFamily=Helvetica;fontSize=12;fontColor=default;" vertex="1" connectable="0" parent="2vzEXNzIKZeWlVXa6jJ8-289">
          <mxGeometry width="36.66666666666667" height="30" as="geometry" />
        </mxCell>
        <mxCell id="2vzEXNzIKZeWlVXa6jJ8-295" style="edgeStyle=orthogonalEdgeStyle;rounded=0;orthogonalLoop=1;jettySize=auto;html=1;entryX=0;entryY=0.5;entryDx=0;entryDy=0;" edge="1" parent="1" source="2vzEXNzIKZeWlVXa6jJ8-291" target="2vzEXNzIKZeWlVXa6jJ8-179">
          <mxGeometry relative="1" as="geometry" />
        </mxCell>
        <mxCell id="2vzEXNzIKZeWlVXa6jJ8-291" value="Номер телефона работодателя" style="shape=partialRectangle;fillColor=none;align=left;verticalAlign=middle;strokeColor=none;spacingLeft=34;rotatable=0;points=[[0,0.5],[1,0.5]];portConstraint=eastwest;dropTarget=0;shadow=0;fontFamily=Helvetica;fontSize=12;fontColor=default;" vertex="1" parent="1">
          <mxGeometry x="1770" y="167.5" width="220" height="30" as="geometry" />
        </mxCell>
        <mxCell id="2vzEXNzIKZeWlVXa6jJ8-292" value="FK2" style="shape=partialRectangle;top=0;left=0;bottom=0;fillColor=none;stokeWidth=1;align=left;verticalAlign=middle;spacingLeft=4;spacingRight=4;overflow=hidden;rotatable=0;points=[];portConstraint=eastwest;part=1;shadow=0;fontFamily=Helvetica;fontSize=12;fontColor=default;" vertex="1" connectable="0" parent="2vzEXNzIKZeWlVXa6jJ8-291">
          <mxGeometry width="36.66666666666667" height="30" as="geometry" />
        </mxCell>
        <mxCell id="2vzEXNzIKZeWlVXa6jJ8-293" style="edgeStyle=orthogonalEdgeStyle;rounded=0;orthogonalLoop=1;jettySize=auto;html=1;entryX=1;entryY=0.5;entryDx=0;entryDy=0;" edge="1" parent="1" source="2vzEXNzIKZeWlVXa6jJ8-224" target="2vzEXNzIKZeWlVXa6jJ8-162">
          <mxGeometry relative="1" as="geometry" />
        </mxCell>
        <mxCell id="2vzEXNzIKZeWlVXa6jJ8-296" value="Содержание" style="shape=partialRectangle;fillColor=none;align=left;verticalAlign=middle;strokeColor=none;spacingLeft=34;rotatable=0;points=[[0,0.5],[1,0.5]];portConstraint=eastwest;dropTarget=0;shadow=0;fontFamily=Helvetica;fontSize=12;fontColor=default;" vertex="1" parent="1">
          <mxGeometry x="1770" y="192.5" width="220" height="30" as="geometry" />
        </mxCell>
        <mxCell id="2vzEXNzIKZeWlVXa6jJ8-297" value="" style="shape=partialRectangle;top=0;left=0;bottom=0;fillColor=none;stokeWidth=1;align=left;verticalAlign=middle;spacingLeft=4;spacingRight=4;overflow=hidden;rotatable=0;points=[];portConstraint=eastwest;part=1;shadow=0;fontFamily=Helvetica;fontSize=12;fontColor=default;" vertex="1" connectable="0" parent="2vzEXNzIKZeWlVXa6jJ8-296">
          <mxGeometry width="36.66666666666667" height="30" as="geometry" />
        </mxCell>
        <mxCell id="2vzEXNzIKZeWlVXa6jJ8-298" value="Время отправки" style="shape=partialRectangle;fillColor=none;align=left;verticalAlign=middle;strokeColor=none;spacingLeft=34;rotatable=0;points=[[0,0.5],[1,0.5]];portConstraint=eastwest;dropTarget=0;shadow=0;fontFamily=Helvetica;fontSize=12;fontColor=default;" vertex="1" parent="1">
          <mxGeometry x="1770" y="222.5" width="220" height="30" as="geometry" />
        </mxCell>
        <mxCell id="2vzEXNzIKZeWlVXa6jJ8-299" value="" style="shape=partialRectangle;top=0;left=0;bottom=0;fillColor=none;stokeWidth=1;align=left;verticalAlign=middle;spacingLeft=4;spacingRight=4;overflow=hidden;rotatable=0;points=[];portConstraint=eastwest;part=1;shadow=0;fontFamily=Helvetica;fontSize=12;fontColor=default;" vertex="1" connectable="0" parent="2vzEXNzIKZeWlVXa6jJ8-298">
          <mxGeometry width="36.66666666666667" height="30" as="geometry" />
        </mxCell>
        <mxCell id="2vzEXNzIKZeWlVXa6jJ8-300" value="Статус" style="shape=partialRectangle;fillColor=none;align=left;verticalAlign=middle;strokeColor=none;spacingLeft=34;rotatable=0;points=[[0,0.5],[1,0.5]];portConstraint=eastwest;dropTarget=0;shadow=0;fontFamily=Helvetica;fontSize=12;fontColor=default;" vertex="1" parent="1">
          <mxGeometry x="1770" y="252.5" width="220" height="30" as="geometry" />
        </mxCell>
        <mxCell id="2vzEXNzIKZeWlVXa6jJ8-301" value="" style="shape=partialRectangle;top=0;left=0;bottom=0;fillColor=none;stokeWidth=1;align=left;verticalAlign=middle;spacingLeft=4;spacingRight=4;overflow=hidden;rotatable=0;points=[];portConstraint=eastwest;part=1;shadow=0;fontFamily=Helvetica;fontSize=12;fontColor=default;" vertex="1" connectable="0" parent="2vzEXNzIKZeWlVXa6jJ8-300">
          <mxGeometry width="36.66666666666667" height="30" as="geometry" />
        </mxCell>
        <mxCell id="2vzEXNzIKZeWlVXa6jJ8-308" value="Сообщение соискателю" style="shape=table;startSize=30;container=1;collapsible=1;childLayout=tableLayout;fixedRows=1;rowLines=0;fontStyle=1;align=center;resizeLast=1;html=1;" vertex="1" parent="1">
          <mxGeometry x="1770" y="480" width="220" height="205" as="geometry" />
        </mxCell>
        <mxCell id="2vzEXNzIKZeWlVXa6jJ8-309" value="" style="shape=tableRow;horizontal=0;startSize=0;swimlaneHead=0;swimlaneBody=0;fillColor=none;collapsible=0;dropTarget=0;points=[[0,0.5],[1,0.5]];portConstraint=eastwest;top=0;left=0;right=0;bottom=1;" vertex="1" parent="2vzEXNzIKZeWlVXa6jJ8-308">
          <mxGeometry y="30" width="220" height="30" as="geometry" />
        </mxCell>
        <mxCell id="2vzEXNzIKZeWlVXa6jJ8-310" value="PK" style="shape=partialRectangle;connectable=0;fillColor=none;top=0;left=0;bottom=0;right=0;fontStyle=1;overflow=hidden;whiteSpace=wrap;html=1;" vertex="1" parent="2vzEXNzIKZeWlVXa6jJ8-309">
          <mxGeometry width="30" height="30" as="geometry">
            <mxRectangle width="30" height="30" as="alternateBounds" />
          </mxGeometry>
        </mxCell>
        <mxCell id="2vzEXNzIKZeWlVXa6jJ8-311" value="id_сообщения" style="shape=partialRectangle;connectable=0;fillColor=none;top=0;left=0;bottom=0;right=0;align=left;spacingLeft=6;fontStyle=5;overflow=hidden;whiteSpace=wrap;html=1;" vertex="1" parent="2vzEXNzIKZeWlVXa6jJ8-309">
          <mxGeometry x="30" width="190" height="30" as="geometry">
            <mxRectangle width="190" height="30" as="alternateBounds" />
          </mxGeometry>
        </mxCell>
        <mxCell id="2vzEXNzIKZeWlVXa6jJ8-322" style="edgeStyle=orthogonalEdgeStyle;rounded=0;orthogonalLoop=1;jettySize=auto;html=1;entryX=1;entryY=0.5;entryDx=0;entryDy=0;" edge="1" parent="1" source="2vzEXNzIKZeWlVXa6jJ8-312" target="2vzEXNzIKZeWlVXa6jJ8-162">
          <mxGeometry relative="1" as="geometry" />
        </mxCell>
        <mxCell id="2vzEXNzIKZeWlVXa6jJ8-312" value="Номер телефона соискателя" style="shape=partialRectangle;fillColor=none;align=left;verticalAlign=middle;strokeColor=none;spacingLeft=34;rotatable=0;points=[[0,0.5],[1,0.5]];portConstraint=eastwest;dropTarget=0;shadow=0;fontFamily=Helvetica;fontSize=12;fontColor=default;" vertex="1" parent="1">
          <mxGeometry x="1770" y="540" width="220" height="30" as="geometry" />
        </mxCell>
        <mxCell id="2vzEXNzIKZeWlVXa6jJ8-313" value="FK1" style="shape=partialRectangle;top=0;left=0;bottom=0;fillColor=none;stokeWidth=1;align=left;verticalAlign=middle;spacingLeft=4;spacingRight=4;overflow=hidden;rotatable=0;points=[];portConstraint=eastwest;part=1;shadow=0;fontFamily=Helvetica;fontSize=12;fontColor=default;" vertex="1" connectable="0" parent="2vzEXNzIKZeWlVXa6jJ8-312">
          <mxGeometry width="36.66666666666667" height="30" as="geometry" />
        </mxCell>
        <mxCell id="2vzEXNzIKZeWlVXa6jJ8-324" style="edgeStyle=orthogonalEdgeStyle;rounded=0;orthogonalLoop=1;jettySize=auto;html=1;entryX=0;entryY=0.5;entryDx=0;entryDy=0;" edge="1" parent="1" source="2vzEXNzIKZeWlVXa6jJ8-314" target="2vzEXNzIKZeWlVXa6jJ8-179">
          <mxGeometry relative="1" as="geometry" />
        </mxCell>
        <mxCell id="2vzEXNzIKZeWlVXa6jJ8-314" value="Номер телефона работодателя" style="shape=partialRectangle;fillColor=none;align=left;verticalAlign=middle;strokeColor=none;spacingLeft=34;rotatable=0;points=[[0,0.5],[1,0.5]];portConstraint=eastwest;dropTarget=0;shadow=0;fontFamily=Helvetica;fontSize=12;fontColor=default;" vertex="1" parent="1">
          <mxGeometry x="1770" y="570" width="220" height="30" as="geometry" />
        </mxCell>
        <mxCell id="2vzEXNzIKZeWlVXa6jJ8-315" value="FK2" style="shape=partialRectangle;top=0;left=0;bottom=0;fillColor=none;stokeWidth=1;align=left;verticalAlign=middle;spacingLeft=4;spacingRight=4;overflow=hidden;rotatable=0;points=[];portConstraint=eastwest;part=1;shadow=0;fontFamily=Helvetica;fontSize=12;fontColor=default;" vertex="1" connectable="0" parent="2vzEXNzIKZeWlVXa6jJ8-314">
          <mxGeometry width="36.66666666666667" height="30" as="geometry" />
        </mxCell>
        <mxCell id="2vzEXNzIKZeWlVXa6jJ8-316" value="Содержание" style="shape=partialRectangle;fillColor=none;align=left;verticalAlign=middle;strokeColor=none;spacingLeft=34;rotatable=0;points=[[0,0.5],[1,0.5]];portConstraint=eastwest;dropTarget=0;shadow=0;fontFamily=Helvetica;fontSize=12;fontColor=default;" vertex="1" parent="1">
          <mxGeometry x="1770" y="595" width="220" height="30" as="geometry" />
        </mxCell>
        <mxCell id="2vzEXNzIKZeWlVXa6jJ8-317" value="" style="shape=partialRectangle;top=0;left=0;bottom=0;fillColor=none;stokeWidth=1;align=left;verticalAlign=middle;spacingLeft=4;spacingRight=4;overflow=hidden;rotatable=0;points=[];portConstraint=eastwest;part=1;shadow=0;fontFamily=Helvetica;fontSize=12;fontColor=default;" vertex="1" connectable="0" parent="2vzEXNzIKZeWlVXa6jJ8-316">
          <mxGeometry width="36.66666666666667" height="30" as="geometry" />
        </mxCell>
        <mxCell id="2vzEXNzIKZeWlVXa6jJ8-318" value="Время отправки" style="shape=partialRectangle;fillColor=none;align=left;verticalAlign=middle;strokeColor=none;spacingLeft=34;rotatable=0;points=[[0,0.5],[1,0.5]];portConstraint=eastwest;dropTarget=0;shadow=0;fontFamily=Helvetica;fontSize=12;fontColor=default;" vertex="1" parent="1">
          <mxGeometry x="1770" y="625" width="220" height="30" as="geometry" />
        </mxCell>
        <mxCell id="2vzEXNzIKZeWlVXa6jJ8-319" value="" style="shape=partialRectangle;top=0;left=0;bottom=0;fillColor=none;stokeWidth=1;align=left;verticalAlign=middle;spacingLeft=4;spacingRight=4;overflow=hidden;rotatable=0;points=[];portConstraint=eastwest;part=1;shadow=0;fontFamily=Helvetica;fontSize=12;fontColor=default;" vertex="1" connectable="0" parent="2vzEXNzIKZeWlVXa6jJ8-318">
          <mxGeometry width="36.66666666666667" height="30" as="geometry" />
        </mxCell>
        <mxCell id="2vzEXNzIKZeWlVXa6jJ8-320" value="Статус" style="shape=partialRectangle;fillColor=none;align=left;verticalAlign=middle;strokeColor=none;spacingLeft=34;rotatable=0;points=[[0,0.5],[1,0.5]];portConstraint=eastwest;dropTarget=0;shadow=0;fontFamily=Helvetica;fontSize=12;fontColor=default;" vertex="1" parent="1">
          <mxGeometry x="1770" y="655" width="220" height="30" as="geometry" />
        </mxCell>
        <mxCell id="2vzEXNzIKZeWlVXa6jJ8-321" value="" style="shape=partialRectangle;top=0;left=0;bottom=0;fillColor=none;stokeWidth=1;align=left;verticalAlign=middle;spacingLeft=4;spacingRight=4;overflow=hidden;rotatable=0;points=[];portConstraint=eastwest;part=1;shadow=0;fontFamily=Helvetica;fontSize=12;fontColor=default;" vertex="1" connectable="0" parent="2vzEXNzIKZeWlVXa6jJ8-320">
          <mxGeometry width="36.66666666666667" height="30" as="geometry" />
        </mxCell>
        <mxCell id="2vzEXNzIKZeWlVXa6jJ8-325" value="Отзыв о работодателе" style="shape=table;startSize=30;container=1;collapsible=1;childLayout=tableLayout;fixedRows=1;rowLines=0;fontStyle=1;align=center;resizeLast=1;html=1;" vertex="1" parent="1">
          <mxGeometry x="1750" y="305" width="250" height="140" as="geometry" />
        </mxCell>
        <mxCell id="2vzEXNzIKZeWlVXa6jJ8-326" value="" style="shape=tableRow;horizontal=0;startSize=0;swimlaneHead=0;swimlaneBody=0;fillColor=none;collapsible=0;dropTarget=0;points=[[0,0.5],[1,0.5]];portConstraint=eastwest;top=0;left=0;right=0;bottom=1;" vertex="1" parent="2vzEXNzIKZeWlVXa6jJ8-325">
          <mxGeometry y="30" width="250" height="25" as="geometry" />
        </mxCell>
        <mxCell id="2vzEXNzIKZeWlVXa6jJ8-327" value="PK, FK1" style="shape=partialRectangle;connectable=0;fillColor=none;top=0;left=0;bottom=0;right=0;fontStyle=1;overflow=hidden;whiteSpace=wrap;html=1;" vertex="1" parent="2vzEXNzIKZeWlVXa6jJ8-326">
          <mxGeometry width="50" height="25" as="geometry">
            <mxRectangle width="50" height="25" as="alternateBounds" />
          </mxGeometry>
        </mxCell>
        <mxCell id="2vzEXNzIKZeWlVXa6jJ8-328" value="Номер телефона работодателя" style="shape=partialRectangle;connectable=0;fillColor=none;top=0;left=0;bottom=0;right=0;align=left;spacingLeft=6;fontStyle=5;overflow=hidden;whiteSpace=wrap;html=1;" vertex="1" parent="2vzEXNzIKZeWlVXa6jJ8-326">
          <mxGeometry x="50" width="200" height="25" as="geometry">
            <mxRectangle width="200" height="25" as="alternateBounds" />
          </mxGeometry>
        </mxCell>
        <mxCell id="2vzEXNzIKZeWlVXa6jJ8-329" value="" style="shape=tableRow;horizontal=0;startSize=0;swimlaneHead=0;swimlaneBody=0;fillColor=none;collapsible=0;dropTarget=0;points=[[0,0.5],[1,0.5]];portConstraint=eastwest;top=0;left=0;right=0;bottom=1;" vertex="1" parent="2vzEXNzIKZeWlVXa6jJ8-325">
          <mxGeometry y="55" width="250" height="25" as="geometry" />
        </mxCell>
        <mxCell id="2vzEXNzIKZeWlVXa6jJ8-330" value="PK,FK2" style="shape=partialRectangle;connectable=0;fillColor=none;top=0;left=0;bottom=0;right=0;fontStyle=1;overflow=hidden;whiteSpace=wrap;html=1;" vertex="1" parent="2vzEXNzIKZeWlVXa6jJ8-329">
          <mxGeometry width="50" height="25" as="geometry">
            <mxRectangle width="50" height="25" as="alternateBounds" />
          </mxGeometry>
        </mxCell>
        <mxCell id="2vzEXNzIKZeWlVXa6jJ8-331" value="&lt;span style=&quot;text-wrap: nowrap;&quot;&gt;Номер телефона соискателя&lt;/span&gt;" style="shape=partialRectangle;connectable=0;fillColor=none;top=0;left=0;bottom=0;right=0;align=left;spacingLeft=6;fontStyle=5;overflow=hidden;whiteSpace=wrap;html=1;" vertex="1" parent="2vzEXNzIKZeWlVXa6jJ8-329">
          <mxGeometry x="50" width="200" height="25" as="geometry">
            <mxRectangle width="200" height="25" as="alternateBounds" />
          </mxGeometry>
        </mxCell>
        <mxCell id="2vzEXNzIKZeWlVXa6jJ8-332" value="       Отзыв" style="shape=partialRectangle;fillColor=none;align=left;verticalAlign=middle;strokeColor=none;spacingLeft=34;rotatable=0;points=[[0,0.5],[1,0.5]];portConstraint=eastwest;dropTarget=0;shadow=0;fontFamily=Helvetica;fontSize=12;fontColor=default;" vertex="1" parent="1">
          <mxGeometry x="1750" y="385" width="290" height="30" as="geometry" />
        </mxCell>
        <mxCell id="2vzEXNzIKZeWlVXa6jJ8-333" value="" style="shape=partialRectangle;top=0;left=0;bottom=0;fillColor=none;stokeWidth=1;align=left;verticalAlign=middle;spacingLeft=4;spacingRight=4;overflow=hidden;rotatable=0;points=[];portConstraint=eastwest;part=1;shadow=0;fontFamily=Helvetica;fontSize=12;fontColor=default;" vertex="1" connectable="0" parent="2vzEXNzIKZeWlVXa6jJ8-332">
          <mxGeometry width="50" height="30" as="geometry" />
        </mxCell>
        <mxCell id="2vzEXNzIKZeWlVXa6jJ8-334" value="       Балл" style="shape=partialRectangle;fillColor=none;align=left;verticalAlign=middle;strokeColor=none;spacingLeft=34;rotatable=0;points=[[0,0.5],[1,0.5]];portConstraint=eastwest;dropTarget=0;shadow=0;fontFamily=Helvetica;fontSize=12;fontColor=default;" vertex="1" parent="1">
          <mxGeometry x="1750" y="415" width="300" height="30" as="geometry" />
        </mxCell>
        <mxCell id="2vzEXNzIKZeWlVXa6jJ8-335" value="" style="shape=partialRectangle;top=0;left=0;bottom=0;fillColor=none;stokeWidth=1;align=left;verticalAlign=middle;spacingLeft=4;spacingRight=4;overflow=hidden;rotatable=0;points=[];portConstraint=eastwest;part=1;shadow=0;fontFamily=Helvetica;fontSize=12;fontColor=default;" vertex="1" connectable="0" parent="2vzEXNzIKZeWlVXa6jJ8-334">
          <mxGeometry width="50.00000000000001" height="30" as="geometry" />
        </mxCell>
        <mxCell id="2vzEXNzIKZeWlVXa6jJ8-336" style="edgeStyle=orthogonalEdgeStyle;rounded=0;orthogonalLoop=1;jettySize=auto;html=1;entryX=0;entryY=0.5;entryDx=0;entryDy=0;" edge="1" parent="1" source="2vzEXNzIKZeWlVXa6jJ8-254" target="2vzEXNzIKZeWlVXa6jJ8-194">
          <mxGeometry relative="1" as="geometry">
            <Array as="points">
              <mxPoint x="1410" y="353" />
              <mxPoint x="1410" y="715" />
            </Array>
          </mxGeometry>
        </mxCell>
        <mxCell id="2vzEXNzIKZeWlVXa6jJ8-337" style="edgeStyle=orthogonalEdgeStyle;rounded=0;orthogonalLoop=1;jettySize=auto;html=1;entryX=0;entryY=0.5;entryDx=0;entryDy=0;" edge="1" parent="1" source="2vzEXNzIKZeWlVXa6jJ8-239" target="2vzEXNzIKZeWlVXa6jJ8-216">
          <mxGeometry relative="1" as="geometry">
            <Array as="points">
              <mxPoint x="1390" y="323" />
              <mxPoint x="1390" y="685" />
            </Array>
          </mxGeometry>
        </mxCell>
        <mxCell id="2vzEXNzIKZeWlVXa6jJ8-338" style="edgeStyle=orthogonalEdgeStyle;rounded=0;orthogonalLoop=1;jettySize=auto;html=1;entryX=1;entryY=0.5;entryDx=0;entryDy=0;" edge="1" parent="1" source="2vzEXNzIKZeWlVXa6jJ8-329" target="2vzEXNzIKZeWlVXa6jJ8-162">
          <mxGeometry relative="1" as="geometry">
            <Array as="points">
              <mxPoint x="1700" y="373" />
              <mxPoint x="1700" y="50" />
            </Array>
          </mxGeometry>
        </mxCell>
        <mxCell id="2vzEXNzIKZeWlVXa6jJ8-339" style="edgeStyle=orthogonalEdgeStyle;rounded=0;orthogonalLoop=1;jettySize=auto;html=1;entryX=0;entryY=0.5;entryDx=0;entryDy=0;exitX=1;exitY=0.5;exitDx=0;exitDy=0;" edge="1" parent="1" source="2vzEXNzIKZeWlVXa6jJ8-326" target="2vzEXNzIKZeWlVXa6jJ8-179">
          <mxGeometry relative="1" as="geometry">
            <Array as="points">
              <mxPoint x="2000" y="350" />
              <mxPoint x="2060" y="350" />
              <mxPoint x="2060" y="710" />
            </Array>
          </mxGeometry>
        </mxCell>
        <mxCell id="2vzEXNzIKZeWlVXa6jJ8-347" value="Просмотр вакансии" style="shape=table;startSize=30;container=1;collapsible=1;childLayout=tableLayout;fixedRows=1;rowLines=0;fontStyle=1;align=center;resizeLast=1;html=1;movable=1;resizable=1;rotatable=1;deletable=1;editable=1;locked=0;connectable=1;" vertex="1" parent="1">
          <mxGeometry x="1450" y="455" width="180" height="155" as="geometry" />
        </mxCell>
        <mxCell id="2vzEXNzIKZeWlVXa6jJ8-348" value="" style="shape=tableRow;horizontal=0;startSize=0;swimlaneHead=0;swimlaneBody=0;fillColor=none;collapsible=0;dropTarget=0;points=[[0,0.5],[1,0.5]];portConstraint=eastwest;top=0;left=0;right=0;bottom=1;" vertex="1" parent="2vzEXNzIKZeWlVXa6jJ8-347">
          <mxGeometry y="30" width="180" height="30" as="geometry" />
        </mxCell>
        <mxCell id="2vzEXNzIKZeWlVXa6jJ8-349" value="PK,FK1" style="shape=partialRectangle;connectable=0;fillColor=none;top=0;left=0;bottom=0;right=0;fontStyle=1;overflow=hidden;whiteSpace=wrap;html=1;" vertex="1" parent="2vzEXNzIKZeWlVXa6jJ8-348">
          <mxGeometry width="50" height="30" as="geometry">
            <mxRectangle width="50" height="30" as="alternateBounds" />
          </mxGeometry>
        </mxCell>
        <mxCell id="2vzEXNzIKZeWlVXa6jJ8-350" value="Номер телефона соискателя" style="shape=partialRectangle;connectable=0;fillColor=none;top=0;left=0;bottom=0;right=0;align=left;spacingLeft=6;fontStyle=5;overflow=hidden;whiteSpace=wrap;html=1;" vertex="1" parent="2vzEXNzIKZeWlVXa6jJ8-348">
          <mxGeometry x="50" width="130" height="30" as="geometry">
            <mxRectangle width="130" height="30" as="alternateBounds" />
          </mxGeometry>
        </mxCell>
        <mxCell id="2vzEXNzIKZeWlVXa6jJ8-351" value="" style="shape=tableRow;horizontal=0;startSize=0;swimlaneHead=0;swimlaneBody=0;fillColor=none;collapsible=0;dropTarget=0;points=[[0,0.5],[1,0.5]];portConstraint=eastwest;top=0;left=0;right=0;bottom=1;" vertex="1" parent="2vzEXNzIKZeWlVXa6jJ8-347">
          <mxGeometry y="60" width="180" height="30" as="geometry" />
        </mxCell>
        <mxCell id="2vzEXNzIKZeWlVXa6jJ8-352" value="PK,FK2" style="shape=partialRectangle;connectable=0;fillColor=none;top=0;left=0;bottom=0;right=0;fontStyle=1;overflow=hidden;whiteSpace=wrap;html=1;" vertex="1" parent="2vzEXNzIKZeWlVXa6jJ8-351">
          <mxGeometry width="50" height="30" as="geometry">
            <mxRectangle width="50" height="30" as="alternateBounds" />
          </mxGeometry>
        </mxCell>
        <mxCell id="2vzEXNzIKZeWlVXa6jJ8-353" value="Название вакансии" style="shape=partialRectangle;connectable=0;fillColor=none;top=0;left=0;bottom=0;right=0;align=left;spacingLeft=6;fontStyle=5;overflow=hidden;whiteSpace=wrap;html=1;" vertex="1" parent="2vzEXNzIKZeWlVXa6jJ8-351">
          <mxGeometry x="50" width="130" height="30" as="geometry">
            <mxRectangle width="130" height="30" as="alternateBounds" />
          </mxGeometry>
        </mxCell>
        <mxCell id="2vzEXNzIKZeWlVXa6jJ8-354" value="" style="shape=tableRow;horizontal=0;startSize=0;swimlaneHead=0;swimlaneBody=0;fillColor=none;collapsible=0;dropTarget=0;points=[[0,0.5],[1,0.5]];portConstraint=eastwest;top=0;left=0;right=0;bottom=1;" vertex="1" parent="2vzEXNzIKZeWlVXa6jJ8-347">
          <mxGeometry y="90" width="180" height="30" as="geometry" />
        </mxCell>
        <mxCell id="2vzEXNzIKZeWlVXa6jJ8-355" value="PK,FK2" style="shape=partialRectangle;connectable=0;fillColor=none;top=0;left=0;bottom=0;right=0;fontStyle=1;overflow=hidden;whiteSpace=wrap;html=1;" vertex="1" parent="2vzEXNzIKZeWlVXa6jJ8-354">
          <mxGeometry width="50" height="30" as="geometry">
            <mxRectangle width="50" height="30" as="alternateBounds" />
          </mxGeometry>
        </mxCell>
        <mxCell id="2vzEXNzIKZeWlVXa6jJ8-356" value="Номер телефона работодателя" style="shape=partialRectangle;connectable=0;fillColor=none;top=0;left=0;bottom=0;right=0;align=left;spacingLeft=6;fontStyle=5;overflow=hidden;whiteSpace=wrap;html=1;" vertex="1" parent="2vzEXNzIKZeWlVXa6jJ8-354">
          <mxGeometry x="50" width="130" height="30" as="geometry">
            <mxRectangle width="130" height="30" as="alternateBounds" />
          </mxGeometry>
        </mxCell>
        <mxCell id="2vzEXNzIKZeWlVXa6jJ8-357" value="" style="shape=tableRow;horizontal=0;startSize=0;swimlaneHead=0;swimlaneBody=0;fillColor=none;collapsible=0;dropTarget=0;points=[[0,0.5],[1,0.5]];portConstraint=eastwest;top=0;left=0;right=0;bottom=0;" vertex="1" parent="2vzEXNzIKZeWlVXa6jJ8-347">
          <mxGeometry y="120" width="180" height="30" as="geometry" />
        </mxCell>
        <mxCell id="2vzEXNzIKZeWlVXa6jJ8-358" value="" style="shape=partialRectangle;connectable=0;fillColor=none;top=0;left=0;bottom=0;right=0;editable=1;overflow=hidden;whiteSpace=wrap;html=1;" vertex="1" parent="2vzEXNzIKZeWlVXa6jJ8-357">
          <mxGeometry width="50" height="30" as="geometry">
            <mxRectangle width="50" height="30" as="alternateBounds" />
          </mxGeometry>
        </mxCell>
        <mxCell id="2vzEXNzIKZeWlVXa6jJ8-359" value="Время просмотра" style="shape=partialRectangle;connectable=0;fillColor=none;top=0;left=0;bottom=0;right=0;align=left;spacingLeft=6;overflow=hidden;whiteSpace=wrap;html=1;" vertex="1" parent="2vzEXNzIKZeWlVXa6jJ8-357">
          <mxGeometry x="50" width="130" height="30" as="geometry">
            <mxRectangle width="130" height="30" as="alternateBounds" />
          </mxGeometry>
        </mxCell>
        <mxCell id="2vzEXNzIKZeWlVXa6jJ8-363" value="Просмотр резюме" style="shape=table;startSize=30;container=1;collapsible=1;childLayout=tableLayout;fixedRows=1;rowLines=0;fontStyle=1;align=center;resizeLast=1;html=1;movable=1;resizable=1;rotatable=1;deletable=1;editable=1;locked=0;connectable=1;" vertex="1" parent="1">
          <mxGeometry x="2110" y="462.5" width="180" height="155" as="geometry" />
        </mxCell>
        <mxCell id="2vzEXNzIKZeWlVXa6jJ8-364" value="" style="shape=tableRow;horizontal=0;startSize=0;swimlaneHead=0;swimlaneBody=0;fillColor=none;collapsible=0;dropTarget=0;points=[[0,0.5],[1,0.5]];portConstraint=eastwest;top=0;left=0;right=0;bottom=1;" vertex="1" parent="2vzEXNzIKZeWlVXa6jJ8-363">
          <mxGeometry y="30" width="180" height="30" as="geometry" />
        </mxCell>
        <mxCell id="2vzEXNzIKZeWlVXa6jJ8-365" value="PK,FK1" style="shape=partialRectangle;connectable=0;fillColor=none;top=0;left=0;bottom=0;right=0;fontStyle=1;overflow=hidden;whiteSpace=wrap;html=1;" vertex="1" parent="2vzEXNzIKZeWlVXa6jJ8-364">
          <mxGeometry width="50" height="30" as="geometry">
            <mxRectangle width="50" height="30" as="alternateBounds" />
          </mxGeometry>
        </mxCell>
        <mxCell id="2vzEXNzIKZeWlVXa6jJ8-366" value="Номер телефона соискателя" style="shape=partialRectangle;connectable=0;fillColor=none;top=0;left=0;bottom=0;right=0;align=left;spacingLeft=6;fontStyle=5;overflow=hidden;whiteSpace=wrap;html=1;" vertex="1" parent="2vzEXNzIKZeWlVXa6jJ8-364">
          <mxGeometry x="50" width="130" height="30" as="geometry">
            <mxRectangle width="130" height="30" as="alternateBounds" />
          </mxGeometry>
        </mxCell>
        <mxCell id="2vzEXNzIKZeWlVXa6jJ8-367" value="" style="shape=tableRow;horizontal=0;startSize=0;swimlaneHead=0;swimlaneBody=0;fillColor=none;collapsible=0;dropTarget=0;points=[[0,0.5],[1,0.5]];portConstraint=eastwest;top=0;left=0;right=0;bottom=1;" vertex="1" parent="2vzEXNzIKZeWlVXa6jJ8-363">
          <mxGeometry y="60" width="180" height="30" as="geometry" />
        </mxCell>
        <mxCell id="2vzEXNzIKZeWlVXa6jJ8-368" value="PK,FK1" style="shape=partialRectangle;connectable=0;fillColor=none;top=0;left=0;bottom=0;right=0;fontStyle=1;overflow=hidden;whiteSpace=wrap;html=1;" vertex="1" parent="2vzEXNzIKZeWlVXa6jJ8-367">
          <mxGeometry width="50" height="30" as="geometry">
            <mxRectangle width="50" height="30" as="alternateBounds" />
          </mxGeometry>
        </mxCell>
        <mxCell id="2vzEXNzIKZeWlVXa6jJ8-369" value="Название резюме" style="shape=partialRectangle;connectable=0;fillColor=none;top=0;left=0;bottom=0;right=0;align=left;spacingLeft=6;fontStyle=5;overflow=hidden;whiteSpace=wrap;html=1;" vertex="1" parent="2vzEXNzIKZeWlVXa6jJ8-367">
          <mxGeometry x="50" width="130" height="30" as="geometry">
            <mxRectangle width="130" height="30" as="alternateBounds" />
          </mxGeometry>
        </mxCell>
        <mxCell id="2vzEXNzIKZeWlVXa6jJ8-370" value="" style="shape=tableRow;horizontal=0;startSize=0;swimlaneHead=0;swimlaneBody=0;fillColor=none;collapsible=0;dropTarget=0;points=[[0,0.5],[1,0.5]];portConstraint=eastwest;top=0;left=0;right=0;bottom=1;" vertex="1" parent="2vzEXNzIKZeWlVXa6jJ8-363">
          <mxGeometry y="90" width="180" height="30" as="geometry" />
        </mxCell>
        <mxCell id="2vzEXNzIKZeWlVXa6jJ8-371" value="PK,FK2" style="shape=partialRectangle;connectable=0;fillColor=none;top=0;left=0;bottom=0;right=0;fontStyle=1;overflow=hidden;whiteSpace=wrap;html=1;" vertex="1" parent="2vzEXNzIKZeWlVXa6jJ8-370">
          <mxGeometry width="50" height="30" as="geometry">
            <mxRectangle width="50" height="30" as="alternateBounds" />
          </mxGeometry>
        </mxCell>
        <mxCell id="2vzEXNzIKZeWlVXa6jJ8-372" value="Номер телефона работодателя" style="shape=partialRectangle;connectable=0;fillColor=none;top=0;left=0;bottom=0;right=0;align=left;spacingLeft=6;fontStyle=5;overflow=hidden;whiteSpace=wrap;html=1;" vertex="1" parent="2vzEXNzIKZeWlVXa6jJ8-370">
          <mxGeometry x="50" width="130" height="30" as="geometry">
            <mxRectangle width="130" height="30" as="alternateBounds" />
          </mxGeometry>
        </mxCell>
        <mxCell id="2vzEXNzIKZeWlVXa6jJ8-373" value="" style="shape=tableRow;horizontal=0;startSize=0;swimlaneHead=0;swimlaneBody=0;fillColor=none;collapsible=0;dropTarget=0;points=[[0,0.5],[1,0.5]];portConstraint=eastwest;top=0;left=0;right=0;bottom=0;" vertex="1" parent="2vzEXNzIKZeWlVXa6jJ8-363">
          <mxGeometry y="120" width="180" height="30" as="geometry" />
        </mxCell>
        <mxCell id="2vzEXNzIKZeWlVXa6jJ8-374" value="" style="shape=partialRectangle;connectable=0;fillColor=none;top=0;left=0;bottom=0;right=0;editable=1;overflow=hidden;whiteSpace=wrap;html=1;" vertex="1" parent="2vzEXNzIKZeWlVXa6jJ8-373">
          <mxGeometry width="50" height="30" as="geometry">
            <mxRectangle width="50" height="30" as="alternateBounds" />
          </mxGeometry>
        </mxCell>
        <mxCell id="2vzEXNzIKZeWlVXa6jJ8-375" value="Время просмотра" style="shape=partialRectangle;connectable=0;fillColor=none;top=0;left=0;bottom=0;right=0;align=left;spacingLeft=6;overflow=hidden;whiteSpace=wrap;html=1;" vertex="1" parent="2vzEXNzIKZeWlVXa6jJ8-373">
          <mxGeometry x="50" width="130" height="30" as="geometry">
            <mxRectangle width="130" height="30" as="alternateBounds" />
          </mxGeometry>
        </mxCell>
        <mxCell id="2vzEXNzIKZeWlVXa6jJ8-376" style="edgeStyle=orthogonalEdgeStyle;rounded=0;orthogonalLoop=1;jettySize=auto;html=1;entryX=0;entryY=0.5;entryDx=0;entryDy=0;" edge="1" parent="1" source="2vzEXNzIKZeWlVXa6jJ8-348" target="2vzEXNzIKZeWlVXa6jJ8-162">
          <mxGeometry relative="1" as="geometry">
            <mxPoint x="1350" y="500" as="targetPoint" />
            <Array as="points">
              <mxPoint x="1360" y="500" />
              <mxPoint x="1360" y="50" />
            </Array>
          </mxGeometry>
        </mxCell>
        <mxCell id="2vzEXNzIKZeWlVXa6jJ8-377" style="edgeStyle=orthogonalEdgeStyle;rounded=0;orthogonalLoop=1;jettySize=auto;html=1;entryX=0;entryY=0.5;entryDx=0;entryDy=0;" edge="1" parent="1" source="2vzEXNzIKZeWlVXa6jJ8-351" target="2vzEXNzIKZeWlVXa6jJ8-216">
          <mxGeometry relative="1" as="geometry">
            <Array as="points">
              <mxPoint x="1340" y="530" />
              <mxPoint x="1340" y="685" />
            </Array>
          </mxGeometry>
        </mxCell>
        <mxCell id="2vzEXNzIKZeWlVXa6jJ8-378" style="edgeStyle=orthogonalEdgeStyle;rounded=0;orthogonalLoop=1;jettySize=auto;html=1;entryX=0;entryY=0.5;entryDx=0;entryDy=0;" edge="1" parent="1" source="2vzEXNzIKZeWlVXa6jJ8-354" target="2vzEXNzIKZeWlVXa6jJ8-194">
          <mxGeometry relative="1" as="geometry">
            <Array as="points">
              <mxPoint x="1360" y="560" />
              <mxPoint x="1360" y="715" />
            </Array>
          </mxGeometry>
        </mxCell>
        <mxCell id="2vzEXNzIKZeWlVXa6jJ8-379" style="edgeStyle=orthogonalEdgeStyle;rounded=0;orthogonalLoop=1;jettySize=auto;html=1;entryX=1;entryY=0.5;entryDx=0;entryDy=0;" edge="1" parent="1" source="2vzEXNzIKZeWlVXa6jJ8-370" target="2vzEXNzIKZeWlVXa6jJ8-179">
          <mxGeometry relative="1" as="geometry">
            <Array as="points">
              <mxPoint x="2350" y="568" />
              <mxPoint x="2350" y="710" />
            </Array>
          </mxGeometry>
        </mxCell>
        <mxCell id="2vzEXNzIKZeWlVXa6jJ8-380" style="edgeStyle=orthogonalEdgeStyle;rounded=0;orthogonalLoop=1;jettySize=auto;html=1;entryX=1;entryY=0.5;entryDx=0;entryDy=0;" edge="1" parent="1" source="2vzEXNzIKZeWlVXa6jJ8-367" target="2vzEXNzIKZeWlVXa6jJ8-221">
          <mxGeometry relative="1" as="geometry">
            <Array as="points">
              <mxPoint x="2400" y="538" />
              <mxPoint x="2400" y="32" />
            </Array>
          </mxGeometry>
        </mxCell>
        <mxCell id="2vzEXNzIKZeWlVXa6jJ8-381" style="edgeStyle=orthogonalEdgeStyle;rounded=0;orthogonalLoop=1;jettySize=auto;html=1;entryX=1;entryY=0.5;entryDx=0;entryDy=0;" edge="1" parent="1" source="2vzEXNzIKZeWlVXa6jJ8-364" target="2vzEXNzIKZeWlVXa6jJ8-224">
          <mxGeometry relative="1" as="geometry">
            <Array as="points">
              <mxPoint x="2450" y="508" />
              <mxPoint x="2450" y="57" />
            </Array>
          </mxGeometry>
        </mxCell>
      </root>
    </mxGraphModel>
  </diagram>
</mxfile>
